<?xml version="1.0" encoding="UTF-8" standalone="no"?>
<svg width="614px" height="187px" viewBox="0 0 614 187" version="1.1" xmlns="http://www.w3.org/2000/svg" xmlns:xlink="http://www.w3.org/1999/xlink">
    <!-- Generator: Sketch 3.6.1 (26313) - http://www.bohemiancoding.com/sketch -->
    <title>Checkup</title>
    <desc>Created with Sketch.</desc>
    <defs>
        <linearGradient x1="50%" y1="-16.2042813%" x2="50%" y2="100%" id="linearGradient-1">
            <stop stop-color="#D8E9FD" offset="0%"></stop>
            <stop stop-color="#033E5D" offset="100%"></stop>
        </linearGradient>
        <linearGradient x1="50%" y1="0.94666773%" x2="50%" y2="100%" id="linearGradient-2">
            <stop stop-color="#8BABC3" offset="0%"></stop>
            <stop stop-color="#0B4463" offset="100%"></stop>
        </linearGradient>
        <path id="path-3" d="M0.640951598,19.9275635 C16.2459814,31.5554132 28.0340996,35.5085496 38.800979,33.5313115 C49.5681909,31.5554132 53.3234513,26.5245069 55.9375241,18.9419612 C58.5495826,11.3604179 54.6623179,0.208445683 54.6623179,0.208445683 L55.8845793,0.724536527 C55.891287,0.742633636 58.701362,7.57249194 58.591464,15.3970032 C58.4815661,23.2573713 54.1121639,34.3620885 42.2499916,38.3199194 C32.3649689,41.6175524 21.9351499,37.6443044 13.9200479,33.5145539 C5.88584549,29.3734104 0.28613,24.4236062 0.270715619,24.4102035 L0.640951263,19.9275632"></path>
        <path id="path-5" d="M14.2393557,0.151141577 L18.7873454,0.953096774 L4.56943299,81.6187975 L0.0211082474,80.8155018 L14.2393557,0.151141577"></path>
        <path id="path-7" d="M0.640951598,19.9275635 C16.2459814,31.5554132 28.0340996,35.5085496 38.800979,33.5313115 C49.5681909,31.5554132 53.3234513,26.5245069 55.9375241,18.9419612 C58.5495826,11.3604179 54.6623179,0.208445683 54.6623179,0.208445683 L55.8845793,0.724536527 C55.891287,0.742633636 58.701362,7.57249194 58.591464,15.3970032 C58.4815661,23.2573713 54.1121639,34.3620885 42.2499916,38.3199194 C32.3649689,41.6175524 21.9351499,37.6443044 13.9200479,33.5145539 C5.88584549,29.3734104 0.28613,24.4236062 0.270715619,24.4102035 L0.640951263,19.9275632"></path>
        <path id="path-9" d="M0.640951598,19.9275635 C16.2459814,31.5554132 28.0340996,35.5085496 38.800979,33.5313115 C49.5681909,31.5554132 53.3234513,26.5245069 55.9375241,18.9419612 C58.5495826,11.3604179 54.6623179,0.208445683 54.6623179,0.208445683 L55.8845793,0.724536527 C55.891287,0.742633636 58.701362,7.57249194 58.591464,15.3970032 C58.4815661,23.2573713 54.1121639,34.3620885 42.2499916,38.3199194 C32.3649689,41.6175524 21.9351499,37.6443044 13.9200479,33.5145539 C5.88584549,29.3734104 0.28613,24.4236062 0.270715619,24.4102035 L0.640951263,19.9275632"></path>
        <path id="path-11" d="M0.640951598,19.9275635 C16.2459814,31.5554132 28.0340996,35.5085496 38.800979,33.5313115 C49.5681909,31.5554132 53.3234513,26.5245069 55.9375241,18.9419612 C58.5495826,11.3604179 54.6623179,0.208445683 54.6623179,0.208445683 L55.8845793,0.724536527 C55.891287,0.742633636 58.701362,7.57249194 58.591464,15.3970032 C58.4815661,23.2573713 54.1121639,34.3620885 42.2499916,38.3199194 C32.3649689,41.6175524 21.9351499,37.6443044 13.9200479,33.5145539 C5.88584549,29.3734104 0.28613,24.4236062 0.270715619,24.4102035 L0.640951263,19.9275632"></path>
        <path id="path-13" d="M0.640951598,19.9275635 C16.2459814,31.5554132 28.0340996,35.5085496 38.800979,33.5313115 C49.5681909,31.5554132 53.3234513,26.5245069 55.9375241,18.9419612 C58.5495826,11.3604179 54.6623179,0.208445683 54.6623179,0.208445683 L55.8845793,0.724536527 C55.891287,0.742633636 58.701362,7.57249194 58.591464,15.3970032 C58.4815661,23.2573713 54.1121639,34.3620885 42.2499916,38.3199194 C32.3649689,41.6175524 21.9351499,37.6443044 13.9200479,33.5145539 C5.88584549,29.3734104 0.28613,24.4236062 0.270715619,24.4102035 L0.640951263,19.9275632"></path>
        <path id="path-15" d="M0.640951598,19.9275635 C16.2459814,31.5554132 28.0340996,35.5085496 38.800979,33.5313115 C49.5681909,31.5554132 53.3234513,26.5245069 55.9375241,18.9419612 C58.5495826,11.3604179 54.6623179,0.208445683 54.6623179,0.208445683 L55.8845793,0.724536527 C55.891287,0.742633636 58.701362,7.57249194 58.591464,15.3970032 C58.4815661,23.2573713 54.1121639,34.3620885 42.2499916,38.3199194 C32.3649689,41.6175524 21.9351499,37.6443044 13.9200479,33.5145539 C5.88584549,29.3734104 0.28613,24.4236062 0.270715619,24.4102035 L0.640951263,19.9275632"></path>
        <path id="path-17" d="M0.640951598,19.9275635 C16.2459814,31.5554132 28.0340996,35.5085496 38.800979,33.5313115 C49.5681909,31.5554132 53.3234513,26.5245069 55.9375241,18.9419612 C58.5495826,11.3604179 54.6623179,0.208445683 54.6623179,0.208445683 L55.8845793,0.724536527 C55.891287,0.742633636 58.701362,7.57249194 58.591464,15.3970032 C58.4815661,23.2573713 54.1121639,34.3620885 42.2499916,38.3199194 C32.3649689,41.6175524 21.9351499,37.6443044 13.9200479,33.5145539 C5.88584549,29.3734104 0.28613,24.4236062 0.270715619,24.4102035 L0.640951263,19.9275632"></path>
        <path id="path-19" d="M14.3951546,0.151141577 L18.9428093,0.953096774 L4.7242268,81.6187975 L0.17556701,80.8155018 L14.3951546,0.151141577"></path>
        <path id="path-21" d="M0.640951598,19.9275635 C16.2459814,31.5554132 28.0340996,35.5085496 38.800979,33.5313115 C49.5681909,31.5554132 53.3234513,26.5245069 55.9375241,18.9419612 C58.5495826,11.3604179 54.6623179,0.208445683 54.6623179,0.208445683 L55.8845793,0.724536527 C55.891287,0.742633636 58.701362,7.57249194 58.591464,15.3970032 C58.4815661,23.2573713 54.1121639,34.3620885 42.2499916,38.3199194 C32.3649689,41.6175524 21.9351499,37.6443044 13.9200479,33.5145539 C5.88584549,29.3734104 0.28613,24.4236062 0.270715619,24.4102035 L0.640951263,19.9275632"></path>
        <path id="path-23" d="M0.640951598,19.9275635 C16.2459814,31.5554132 28.0340996,35.5085496 38.800979,33.5313115 C49.5681909,31.5554132 53.3234513,26.5245069 55.9375241,18.9419612 C58.5495826,11.3604179 54.6623179,0.208445683 54.6623179,0.208445683 L55.8845793,0.724536527 C55.891287,0.742633636 58.701362,7.57249194 58.591464,15.3970032 C58.4815661,23.2573713 54.1121639,34.3620885 42.2499916,38.3199194 C32.3649689,41.6175524 21.9351499,37.6443044 13.9200479,33.5145539 C5.88584549,29.3734104 0.28613,24.4236062 0.270715619,24.4102035 L0.640951263,19.9275632"></path>
        <path id="path-25" d="M0.640951598,19.9275635 C16.2459814,31.5554132 28.0340996,35.5085496 38.800979,33.5313115 C49.5681909,31.5554132 53.3234513,26.5245069 55.9375241,18.9419612 C58.5495826,11.3604179 54.6623179,0.208445683 54.6623179,0.208445683 L55.8845793,0.724536527 C55.891287,0.742633636 58.701362,7.57249194 58.591464,15.3970032 C58.4815661,23.2573713 54.1121639,34.3620885 42.2499916,38.3199194 C32.3649689,41.6175524 21.9351499,37.6443044 13.9200479,33.5145539 C5.88584549,29.3734104 0.28613,24.4236062 0.270715619,24.4102035 L0.640951263,19.9275632"></path>
        <path id="path-27" d="M0.640951598,19.9275635 C16.2459814,31.5554132 28.0340996,35.5085496 38.800979,33.5313115 C49.5681909,31.5554132 53.3234513,26.5245069 55.9375241,18.9419612 C58.5495826,11.3604179 54.6623179,0.208445683 54.6623179,0.208445683 L55.8845793,0.724536527 C55.891287,0.742633636 58.701362,7.57249194 58.591464,15.3970032 C58.4815661,23.2573713 54.1121639,34.3620885 42.2499916,38.3199194 C32.3649689,41.6175524 21.9351499,37.6443044 13.9200479,33.5145539 C5.88584549,29.3734104 0.28613,24.4236062 0.270715619,24.4102035 L0.640951263,19.9275632"></path>
        <path id="path-29" d="M0.640951598,19.9275635 C16.2459814,31.5554132 28.0340996,35.5085496 38.800979,33.5313115 C49.5681909,31.5554132 53.3234513,26.5245069 55.9375241,18.9419612 C58.5495826,11.3604179 54.6623179,0.208445683 54.6623179,0.208445683 L55.8845793,0.724536527 C55.891287,0.742633636 58.701362,7.57249194 58.591464,15.3970032 C58.4815661,23.2573713 54.1121639,34.3620885 42.2499916,38.3199194 C32.3649689,41.6175524 21.9351499,37.6443044 13.9200479,33.5145539 C5.88584549,29.3734104 0.28613,24.4236062 0.270715619,24.4102035 L0.640951263,19.9275632"></path>
        <path id="path-31" d="M0.640951598,19.9275635 C16.2459814,31.5554132 28.0340996,35.5085496 38.800979,33.5313115 C49.5681909,31.5554132 53.3234513,26.5245069 55.9375241,18.9419612 C58.5495826,11.3604179 54.6623179,0.208445683 54.6623179,0.208445683 L55.8845793,0.724536527 C55.891287,0.742633636 58.701362,7.57249194 58.591464,15.3970032 C58.4815661,23.2573713 54.1121639,34.3620885 42.2499916,38.3199194 C32.3649689,41.6175524 21.9351499,37.6443044 13.9200479,33.5145539 C5.88584549,29.3734104 0.28613,24.4236062 0.270715619,24.4102035 L0.640951263,19.9275632"></path>
        <path id="path-33" d="M14.5368814,0.0563010753 L19.0852062,0.858591398 L4.86561856,81.5236219 L0.317963918,80.7223369 L14.5368814,0.0563010753"></path>
        <path id="path-35" d="M0.640951598,19.9275635 C16.2459814,31.5554132 28.0340996,35.5085496 38.800979,33.5313115 C49.5681909,31.5554132 53.3234513,26.5245069 55.9375241,18.9419612 C58.5495826,11.3604179 54.6623179,0.208445683 54.6623179,0.208445683 L55.8845793,0.724536527 C55.891287,0.742633636 58.701362,7.57249194 58.591464,15.3970032 C58.4815661,23.2573713 54.1121639,34.3620885 42.2499916,38.3199194 C32.3649689,41.6175524 21.9351499,37.6443044 13.9200479,33.5145539 C5.88584549,29.3734104 0.28613,24.4236062 0.270715619,24.4102035 L0.640951263,19.9275632"></path>
        <path id="path-37" d="M0.640951598,19.9275635 C16.2459814,31.5554132 28.0340996,35.5085496 38.800979,33.5313115 C49.5681909,31.5554132 53.3234513,26.5245069 55.9375241,18.9419612 C58.5495826,11.3604179 54.6623179,0.208445683 54.6623179,0.208445683 L55.8845793,0.724536527 C55.891287,0.742633636 58.701362,7.57249194 58.591464,15.3970032 C58.4815661,23.2573713 54.1121639,34.3620885 42.2499916,38.3199194 C32.3649689,41.6175524 21.9351499,37.6443044 13.9200479,33.5145539 C5.88584549,29.3734104 0.28613,24.4236062 0.270715619,24.4102035 L0.640951263,19.9275632"></path>
        <path id="path-39" d="M0.640951598,19.9275635 C16.2459814,31.5554132 28.0340996,35.5085496 38.800979,33.5313115 C49.5681909,31.5554132 53.3234513,26.5245069 55.9375241,18.9419612 C58.5495826,11.3604179 54.6623179,0.208445683 54.6623179,0.208445683 L55.8845793,0.724536527 C55.891287,0.742633636 58.701362,7.57249194 58.591464,15.3970032 C58.4815661,23.2573713 54.1121639,34.3620885 42.2499916,38.3199194 C32.3649689,41.6175524 21.9351499,37.6443044 13.9200479,33.5145539 C5.88584549,29.3734104 0.28613,24.4236062 0.270715619,24.4102035 L0.640951263,19.9275632"></path>
        <path id="path-41" d="M0.640951598,19.9275635 C16.2459814,31.5554132 28.0340996,35.5085496 38.800979,33.5313115 C49.5681909,31.5554132 53.3234513,26.5245069 55.9375241,18.9419612 C58.5495826,11.3604179 54.6623179,0.208445683 54.6623179,0.208445683 L55.8845793,0.724536527 C55.891287,0.742633636 58.701362,7.57249194 58.591464,15.3970032 C58.4815661,23.2573713 54.1121639,34.3620885 42.2499916,38.3199194 C32.3649689,41.6175524 21.9351499,37.6443044 13.9200479,33.5145539 C5.88584549,29.3734104 0.28613,24.4236062 0.270715619,24.4102035 L0.640951263,19.9275632"></path>
        <path id="path-43" d="M0.640951598,19.9275635 C16.2459814,31.5554132 28.0340996,35.5085496 38.800979,33.5313115 C49.5681909,31.5554132 53.3234513,26.5245069 55.9375241,18.9419612 C58.5495826,11.3604179 54.6623179,0.208445683 54.6623179,0.208445683 L55.8845793,0.724536527 C55.891287,0.742633636 58.701362,7.57249194 58.591464,15.3970032 C58.4815661,23.2573713 54.1121639,34.3620885 42.2499916,38.3199194 C32.3649689,41.6175524 21.9351499,37.6443044 13.9200479,33.5145539 C5.88584549,29.3734104 0.28613,24.4236062 0.270715619,24.4102035 L0.640951263,19.9275632"></path>
        <path id="path-45" d="M0.640951598,19.9275635 C16.2459814,31.5554132 28.0340996,35.5085496 38.800979,33.5313115 C49.5681909,31.5554132 53.3234513,26.5245069 55.9375241,18.9419612 C58.5495826,11.3604179 54.6623179,0.208445683 54.6623179,0.208445683 L55.8845793,0.724536527 C55.891287,0.742633636 58.701362,7.57249194 58.591464,15.3970032 C58.4815661,23.2573713 54.1121639,34.3620885 42.2499916,38.3199194 C32.3649689,41.6175524 21.9351499,37.6443044 13.9200479,33.5145539 C5.88584549,29.3734104 0.28613,24.4236062 0.270715619,24.4102035 L0.640951263,19.9275632"></path>
        <path id="path-47" d="M0.120618557,0.10824552 L4.73896907,0.10824552 L4.74533505,82.0149158 L0.126314433,82.0149158 L0.120618557,0.10824552"></path>
        <path id="path-49" d="M0.640951598,19.9275635 C16.2459814,31.5554132 28.0340996,35.5085496 38.800979,33.5313115 C49.5681909,31.5554132 53.3234513,26.5245069 55.9375241,18.9419612 C58.5495826,11.3604179 54.6623179,0.208445683 54.6623179,0.208445683 L55.8845793,0.724536527 C55.891287,0.742633636 58.701362,7.57249194 58.591464,15.3970032 C58.4815661,23.2573713 54.1121639,34.3620885 42.2499916,38.3199194 C32.3649689,41.6175524 21.9351499,37.6443044 13.9200479,33.5145539 C5.88584549,29.3734104 0.28613,24.4236062 0.270715619,24.4102035 L0.640951263,19.9275632"></path>
        <path id="path-51" d="M0.640951598,19.9275635 C16.2459814,31.5554132 28.0340996,35.5085496 38.800979,33.5313115 C49.5681909,31.5554132 53.3234513,26.5245069 55.9375241,18.9419612 C58.5495826,11.3604179 54.6623179,0.208445683 54.6623179,0.208445683 L55.8845793,0.724536527 C55.891287,0.742633636 58.701362,7.57249194 58.591464,15.3970032 C58.4815661,23.2573713 54.1121639,34.3620885 42.2499916,38.3199194 C32.3649689,41.6175524 21.9351499,37.6443044 13.9200479,33.5145539 C5.88584549,29.3734104 0.28613,24.4236062 0.270715619,24.4102035 L0.640951263,19.9275632"></path>
        <path id="path-53" d="M0.640951598,19.9275635 C16.2459814,31.5554132 28.0340996,35.5085496 38.800979,33.5313115 C49.5681909,31.5554132 53.3234513,26.5245069 55.9375241,18.9419612 C58.5495826,11.3604179 54.6623179,0.208445683 54.6623179,0.208445683 L55.8845793,0.724536527 C55.891287,0.742633636 58.701362,7.57249194 58.591464,15.3970032 C58.4815661,23.2573713 54.1121639,34.3620885 42.2499916,38.3199194 C32.3649689,41.6175524 21.9351499,37.6443044 13.9200479,33.5145539 C5.88584549,29.3734104 0.28613,24.4236062 0.270715619,24.4102035 L0.640951263,19.9275632"></path>
        <path id="path-55" d="M0.640951598,19.9275635 C16.2459814,31.5554132 28.0340996,35.5085496 38.800979,33.5313115 C49.5681909,31.5554132 53.3234513,26.5245069 55.9375241,18.9419612 C58.5495826,11.3604179 54.6623179,0.208445683 54.6623179,0.208445683 L55.8845793,0.724536527 C55.891287,0.742633636 58.701362,7.57249194 58.591464,15.3970032 C58.4815661,23.2573713 54.1121639,34.3620885 42.2499916,38.3199194 C32.3649689,41.6175524 21.9351499,37.6443044 13.9200479,33.5145539 C5.88584549,29.3734104 0.28613,24.4236062 0.270715619,24.4102035 L0.640951263,19.9275632"></path>
        <path id="path-57" d="M0.0582989691,13.4120542 C0.0582989691,6.17837444 5.92103126,0.313341289 13.1537883,0.313341289 C20.3868814,0.313341289 26.2502835,6.1783741 26.2502835,13.4120542 C26.2502835,20.6464093 20.3868814,26.5114421 13.1537883,26.5114421 C5.92103126,26.5114421 0.0582989691,20.6464093 0.0582989691,13.4120542"></path>
        <path id="path-59" d="M0.0582989691,13.4120542 C0.0582989691,6.17837444 5.92103126,0.313341289 13.1537883,0.313341289 C20.3868814,0.313341289 26.2502835,6.1783741 26.2502835,13.4120542 C26.2502835,20.6464093 20.3868814,26.5114421 13.1537883,26.5114421 C5.92103126,26.5114421 0.0582989691,20.6464093 0.0582989691,13.4120542"></path>
        <path id="path-61" d="M0.0582989691,13.4120542 C0.0582989691,6.17837444 5.92103126,0.313341289 13.1537883,0.313341289 C20.3868814,0.313341289 26.2502835,6.1783741 26.2502835,13.4120542 C26.2502835,20.6464093 20.3868814,26.5114421 13.1537883,26.5114421 C5.92103126,26.5114421 0.0582989691,20.6464093 0.0582989691,13.4120542"></path>
        <path id="path-63" d="M0.0582989691,13.4120542 C0.0582989691,6.17837444 5.92103126,0.313341289 13.1537883,0.313341289 C20.3868814,0.313341289 26.2502835,6.1783741 26.2502835,13.4120542 C26.2502835,20.6464093 20.3868814,26.5114421 13.1537883,26.5114421 C5.92103126,26.5114421 0.0582989691,20.6464093 0.0582989691,13.4120542"></path>
        <path id="path-65" d="M0.0582989691,13.4120542 C0.0582989691,6.17837444 5.92103126,0.313341289 13.1537883,0.313341289 C20.3868814,0.313341289 26.2502835,6.1783741 26.2502835,13.4120542 C26.2502835,20.6464093 20.3868814,26.5114421 13.1537883,26.5114421 C5.92103126,26.5114421 0.0582989691,20.6464093 0.0582989691,13.4120542"></path>
        <path id="path-67" d="M0.0582989691,13.4120542 C0.0582989691,6.17837444 5.92103126,0.313341289 13.1537883,0.313341289 C20.3868814,0.313341289 26.2502835,6.1783741 26.2502835,13.4120542 C26.2502835,20.6464093 20.3868814,26.5114421 13.1537883,26.5114421 C5.92103126,26.5114421 0.0582989691,20.6464093 0.0582989691,13.4120542"></path>
        <path id="path-69" d="M0.0582989691,13.4120542 C0.0582989691,6.17837444 5.92103126,0.313341289 13.1537883,0.313341289 C20.3868814,0.313341289 26.2502835,6.1783741 26.2502835,13.4120542 C26.2502835,20.6464093 20.3868814,26.5114421 13.1537883,26.5114421 C5.92103126,26.5114421 0.0582989691,20.6464093 0.0582989691,13.4120542"></path>
        <path id="path-71" d="M0.0582989691,13.4120542 C0.0582989691,6.17837444 5.92103126,0.313341289 13.1537883,0.313341289 C20.3868814,0.313341289 26.2502835,6.1783741 26.2502835,13.4120542 C26.2502835,20.6464093 20.3868814,26.5114421 13.1537883,26.5114421 C5.92103126,26.5114421 0.0582989691,20.6464093 0.0582989691,13.4120542"></path>
        <path id="path-73" d="M0.0582989691,13.4120542 C0.0582989691,6.17837444 5.92103126,0.313341289 13.1537883,0.313341289 C20.3868814,0.313341289 26.2502835,6.1783741 26.2502835,13.4120542 C26.2502835,20.6464093 20.3868814,26.5114421 13.1537883,26.5114421 C5.92103126,26.5114421 0.0582989691,20.6464093 0.0582989691,13.4120542"></path>
        <path id="path-75" d="M0.0582989691,13.4120542 C0.0582989691,6.17837444 5.92103126,0.313341289 13.1537883,0.313341289 C20.3868814,0.313341289 26.2502835,6.1783741 26.2502835,13.4120542 C26.2502835,20.6464093 20.3868814,26.5114421 13.1537883,26.5114421 C5.92103126,26.5114421 0.0582989691,20.6464093 0.0582989691,13.4120542"></path>
        <path id="path-77" d="M0.0582989691,13.4120542 C0.0582989691,6.17837444 5.92103126,0.313341289 13.1537883,0.313341289 C20.3868814,0.313341289 26.2502835,6.1783741 26.2502835,13.4120542 C26.2502835,20.6464093 20.3868814,26.5114421 13.1537883,26.5114421 C5.92103126,26.5114421 0.0582989691,20.6464093 0.0582989691,13.4120542"></path>
        <path id="path-79" d="M0.0582989691,13.4120542 C0.0582989691,6.17837444 5.92103126,0.313341289 13.1537883,0.313341289 C20.3868814,0.313341289 26.2502835,6.1783741 26.2502835,13.4120542 C26.2502835,20.6464093 20.3868814,26.5114421 13.1537883,26.5114421 C5.92103126,26.5114421 0.0582989691,20.6464093 0.0582989691,13.4120542"></path>
        <path id="path-81" d="M0.0582989691,13.4120542 C0.0582989691,6.17837444 5.92103126,0.313341289 13.1537883,0.313341289 C20.3868814,0.313341289 26.2502835,6.1783741 26.2502835,13.4120542 C26.2502835,20.6464093 20.3868814,26.5114421 13.1537883,26.5114421 C5.92103126,26.5114421 0.0582989691,20.6464093 0.0582989691,13.4120542"></path>
        <path id="path-83" d="M0.0582989691,13.4120542 C0.0582989691,6.17837444 5.92103126,0.313341289 13.1537883,0.313341289 C20.3868814,0.313341289 26.2502835,6.1783741 26.2502835,13.4120542 C26.2502835,20.6464093 20.3868814,26.5114421 13.1537883,26.5114421 C5.92103126,26.5114421 0.0582989691,20.6464093 0.0582989691,13.4120542"></path>
        <path id="path-85" d="M0.0582989691,13.4120542 C0.0582989691,6.17837444 5.92103126,0.313341289 13.1537883,0.313341289 C20.3868814,0.313341289 26.2502835,6.1783741 26.2502835,13.4120542 C26.2502835,20.6464093 20.3868814,26.5114421 13.1537883,26.5114421 C5.92103126,26.5114421 0.0582989691,20.6464093 0.0582989691,13.4120542"></path>
        <path id="path-87" d="M0.0582989691,13.4120542 C0.0582989691,6.17837444 5.92103126,0.313341289 13.1537883,0.313341289 C20.3868814,0.313341289 26.2502835,6.1783741 26.2502835,13.4120542 C26.2502835,20.6464093 20.3868814,26.5114421 13.1537883,26.5114421 C5.92103126,26.5114421 0.0582989691,20.6464093 0.0582989691,13.4120542"></path>
        <path id="path-89" d="M0.0582989691,13.4120542 C0.0582989691,6.17837444 5.92103126,0.313341289 13.1537883,0.313341289 C20.3868814,0.313341289 26.2502835,6.1783741 26.2502835,13.4120542 C26.2502835,20.6464093 20.3868814,26.5114421 13.1537883,26.5114421 C5.92103126,26.5114421 0.0582989691,20.6464093 0.0582989691,13.4120542"></path>
        <path id="path-91" d="M0.0582989691,13.4120542 C0.0582989691,6.17837444 5.92103126,0.313341289 13.1537883,0.313341289 C20.3868814,0.313341289 26.2502835,6.1783741 26.2502835,13.4120542 C26.2502835,20.6464093 20.3868814,26.5114421 13.1537883,26.5114421 C5.92103126,26.5114421 0.0582989691,20.6464093 0.0582989691,13.4120542"></path>
        <path id="path-93" d="M0.0582989691,13.4120542 C0.0582989691,6.17837444 5.92103126,0.313341289 13.1537883,0.313341289 C20.3868814,0.313341289 26.2502835,6.1783741 26.2502835,13.4120542 C26.2502835,20.6464093 20.3868814,26.5114421 13.1537883,26.5114421 C5.92103126,26.5114421 0.0582989691,20.6464093 0.0582989691,13.4120542"></path>
        <path id="path-95" d="M0.0582989691,13.4120542 C0.0582989691,6.17837444 5.92103126,0.313341289 13.1537883,0.313341289 C20.3868814,0.313341289 26.2502835,6.1783741 26.2502835,13.4120542 C26.2502835,20.6464093 20.3868814,26.5114421 13.1537883,26.5114421 C5.92103126,26.5114421 0.0582989691,20.6464093 0.0582989691,13.4120542"></path>
        <path id="path-97" d="M0.0582989691,13.4120542 C0.0582989691,6.17837444 5.92103126,0.313341289 13.1537883,0.313341289 C20.3868814,0.313341289 26.2502835,6.1783741 26.2502835,13.4120542 C26.2502835,20.6464093 20.3868814,26.5114421 13.1537883,26.5114421 C5.92103126,26.5114421 0.0582989691,20.6464093 0.0582989691,13.4120542"></path>
        <path id="path-99" d="M0.0582989691,13.4120542 C0.0582989691,6.17837444 5.92103126,0.313341289 13.1537883,0.313341289 C20.3868814,0.313341289 26.2502835,6.1783741 26.2502835,13.4120542 C26.2502835,20.6464093 20.3868814,26.5114421 13.1537883,26.5114421 C5.92103126,26.5114421 0.0582989691,20.6464093 0.0582989691,13.4120542"></path>
        <path id="path-101" d="M0.0582989691,13.4120542 C0.0582989691,6.17837444 5.92103126,0.313341289 13.1537883,0.313341289 C20.3868814,0.313341289 26.2502835,6.1783741 26.2502835,13.4120542 C26.2502835,20.6464093 20.3868814,26.5114421 13.1537883,26.5114421 C5.92103126,26.5114421 0.0582989691,20.6464093 0.0582989691,13.4120542"></path>
        <path id="path-103" d="M0.0582989691,13.4120542 C0.0582989691,6.17837444 5.92103126,0.313341289 13.1537883,0.313341289 C20.3868814,0.313341289 26.2502835,6.1783741 26.2502835,13.4120542 C26.2502835,20.6464093 20.3868814,26.5114421 13.1537883,26.5114421 C5.92103126,26.5114421 0.0582989691,20.6464093 0.0582989691,13.4120542"></path>
        <path id="path-105" d="M0.0582989691,13.4120542 C0.0582989691,6.17837444 5.92103126,0.313341289 13.1537883,0.313341289 C20.3868814,0.313341289 26.2502835,6.1783741 26.2502835,13.4120542 C26.2502835,20.6464093 20.3868814,26.5114421 13.1537883,26.5114421 C5.92103126,26.5114421 0.0582989691,20.6464093 0.0582989691,13.4120542"></path>
        <path id="path-107" d="M0.0582989691,13.4120542 C0.0582989691,6.17837444 5.92103126,0.313341289 13.1537883,0.313341289 C20.3868814,0.313341289 26.2502835,6.1783741 26.2502835,13.4120542 C26.2502835,20.6464093 20.3868814,26.5114421 13.1537883,26.5114421 C5.92103126,26.5114421 0.0582989691,20.6464093 0.0582989691,13.4120542"></path>
        <path id="path-109" d="M0.0582989691,13.4120542 C0.0582989691,6.17837444 5.92103126,0.313341289 13.1537883,0.313341289 C20.3868814,0.313341289 26.2502835,6.1783741 26.2502835,13.4120542 C26.2502835,20.6464093 20.3868814,26.5114421 13.1537883,26.5114421 C5.92103126,26.5114421 0.0582989691,20.6464093 0.0582989691,13.4120542"></path>
        <path id="path-111" d="M0.0582989691,13.4120542 C0.0582989691,6.17837444 5.92103126,0.313341289 13.1537883,0.313341289 C20.3868814,0.313341289 26.2502835,6.1783741 26.2502835,13.4120542 C26.2502835,20.6464093 20.3868814,26.5114421 13.1537883,26.5114421 C5.92103126,26.5114421 0.0582989691,20.6464093 0.0582989691,13.4120542"></path>
        <path id="path-113" d="M0.0582989691,13.4120542 C0.0582989691,6.17837444 5.92103126,0.313341289 13.1537883,0.313341289 C20.3868814,0.313341289 26.2502835,6.1783741 26.2502835,13.4120542 C26.2502835,20.6464093 20.3868814,26.5114421 13.1537883,26.5114421 C5.92103126,26.5114421 0.0582989691,20.6464093 0.0582989691,13.4120542"></path>
        <path id="path-115" d="M0.0582989691,13.4120542 C0.0582989691,6.17837444 5.92103126,0.313341289 13.1537883,0.313341289 C20.3868814,0.313341289 26.2502835,6.1783741 26.2502835,13.4120542 C26.2502835,20.6464093 20.3868814,26.5114421 13.1537883,26.5114421 C5.92103126,26.5114421 0.0582989691,20.6464093 0.0582989691,13.4120542"></path>
        <path id="path-117" d="M0.0582989691,13.4120542 C0.0582989691,6.17837444 5.92103126,0.313341289 13.1537883,0.313341289 C20.3868814,0.313341289 26.2502835,6.1783741 26.2502835,13.4120542 C26.2502835,20.6464093 20.3868814,26.5114421 13.1537883,26.5114421 C5.92103126,26.5114421 0.0582989691,20.6464093 0.0582989691,13.4120542"></path>
        <path id="path-119" d="M0.0582989691,13.4120542 C0.0582989691,6.17837444 5.92103126,0.313341289 13.1537883,0.313341289 C20.3868814,0.313341289 26.2502835,6.1783741 26.2502835,13.4120542 C26.2502835,20.6464093 20.3868814,26.5114421 13.1537883,26.5114421 C5.92103126,26.5114421 0.0582989691,20.6464093 0.0582989691,13.4120542"></path>
        <path id="path-121" d="M0.330360825,8.17807134 C0.330360825,3.80200893 3.87721616,0.255036163 8.25164881,0.255036163 C12.6270863,0.255036163 16.1732742,3.80199854 16.1732742,8.17807134 C16.1732742,12.5544712 12.6270863,16.1021193 8.25164881,16.1021193 C3.87721582,16.1021089 0.330360825,12.5544715 0.330360825,8.17807134"></path>
        <path id="path-123" d="M0.330360825,8.17807134 C0.330360825,3.80200893 3.87721616,0.255036163 8.25164881,0.255036163 C12.6270863,0.255036163 16.1732742,3.80199854 16.1732742,8.17807134 C16.1732742,12.5544712 12.6270863,16.1021193 8.25164881,16.1021193 C3.87721582,16.1021089 0.330360825,12.5544715 0.330360825,8.17807134"></path>
        <path id="path-125" d="M0.330360825,8.17807134 C0.330360825,3.80200893 3.87721616,0.255036163 8.25164881,0.255036163 C12.6270863,0.255036163 16.1732742,3.80199854 16.1732742,8.17807134 C16.1732742,12.5544712 12.6270863,16.1021193 8.25164881,16.1021193 C3.87721582,16.1021089 0.330360825,12.5544715 0.330360825,8.17807134"></path>
        <path id="path-127" d="M0.330360825,8.17807134 C0.330360825,3.80200893 3.87721616,0.255036163 8.25164881,0.255036163 C12.6270863,0.255036163 16.1732742,3.80199854 16.1732742,8.17807134 C16.1732742,12.5544712 12.6270863,16.1021193 8.25164881,16.1021193 C3.87721582,16.1021089 0.330360825,12.5544715 0.330360825,8.17807134"></path>
        <path id="path-129" d="M0.330360825,8.17807134 C0.330360825,3.80200893 3.87721616,0.255036163 8.25164881,0.255036163 C12.6270863,0.255036163 16.1732742,3.80199854 16.1732742,8.17807134 C16.1732742,12.5544712 12.6270863,16.1021193 8.25164881,16.1021193 C3.87721582,16.1021089 0.330360825,12.5544715 0.330360825,8.17807134"></path>
        <path id="path-131" d="M0.330360825,8.17807134 C0.330360825,3.80200893 3.87721616,0.255036163 8.25164881,0.255036163 C12.6270863,0.255036163 16.1732742,3.80199854 16.1732742,8.17807134 C16.1732742,12.5544712 12.6270863,16.1021193 8.25164881,16.1021193 C3.87721582,16.1021089 0.330360825,12.5544715 0.330360825,8.17807134"></path>
        <path id="path-133" d="M0.330360825,8.17807134 C0.330360825,3.80200893 3.87721616,0.255036163 8.25164881,0.255036163 C12.6270863,0.255036163 16.1732742,3.80199854 16.1732742,8.17807134 C16.1732742,12.5544712 12.6270863,16.1021193 8.25164881,16.1021193 C3.87721582,16.1021089 0.330360825,12.5544715 0.330360825,8.17807134"></path>
        <path id="path-135" d="M0.330360825,8.17807134 C0.330360825,3.80200893 3.87721616,0.255036163 8.25164881,0.255036163 C12.6270863,0.255036163 16.1732742,3.80199854 16.1732742,8.17807134 C16.1732742,12.5544712 12.6270863,16.1021193 8.25164881,16.1021193 C3.87721582,16.1021089 0.330360825,12.5544715 0.330360825,8.17807134"></path>
        <path id="path-137" d="M0.330360825,8.17807134 C0.330360825,3.80200893 3.87721616,0.255036163 8.25164881,0.255036163 C12.6270863,0.255036163 16.1732742,3.80199854 16.1732742,8.17807134 C16.1732742,12.5544712 12.6270863,16.1021193 8.25164881,16.1021193 C3.87721582,16.1021089 0.330360825,12.5544715 0.330360825,8.17807134"></path>
        <path id="path-139" d="M0.330360825,8.17807134 C0.330360825,3.80200893 3.87721616,0.255036163 8.25164881,0.255036163 C12.6270863,0.255036163 16.1732742,3.80199854 16.1732742,8.17807134 C16.1732742,12.5544712 12.6270863,16.1021193 8.25164881,16.1021193 C3.87721582,16.1021089 0.330360825,12.5544715 0.330360825,8.17807134"></path>
        <path id="path-141" d="M0.330360825,8.17807134 C0.330360825,3.80200893 3.87721616,0.255036163 8.25164881,0.255036163 C12.6270863,0.255036163 16.1732742,3.80199854 16.1732742,8.17807134 C16.1732742,12.5544712 12.6270863,16.1021193 8.25164881,16.1021193 C3.87721582,16.1021089 0.330360825,12.5544715 0.330360825,8.17807134"></path>
        <path id="path-143" d="M7.58389175,1.5895 L4.3556701,10.6982097 L0.243247423,9.23840323 L3.47146907,0.131369176 L7.58389175,1.5895"></path>
        <path id="path-145" d="M7.58389175,1.5895 L4.3556701,10.6982097 L0.243247423,9.23840323 L3.47146907,0.131369176 L7.58389175,1.5895"></path>
        <path id="path-147" d="M7.58389175,1.5895 L4.3556701,10.6982097 L0.243247423,9.23840323 L3.47146907,0.131369176 L7.58389175,1.5895"></path>
        <path id="path-149" d="M7.58389175,1.5895 L4.3556701,10.6982097 L0.243247423,9.23840323 L3.47146907,0.131369176 L7.58389175,1.5895"></path>
        <path id="path-151" d="M7.58389175,1.5895 L4.3556701,10.6982097 L0.243247423,9.23840323 L3.47146907,0.131369176 L7.58389175,1.5895"></path>
        <path id="path-153" d="M7.58389175,1.5895 L4.3556701,10.6982097 L0.243247423,9.23840323 L3.47146907,0.131369176 L7.58389175,1.5895"></path>
        <path id="path-155" d="M10.1219096,0.0542906577 C10.1219096,0.0542906577 13.5193319,0.269105735 14.1639751,4.84893078 C14.8082755,9.42875415 13.8416535,9.32084409 13.8416535,9.32084409 C13.8416535,9.32084409 10.0133562,11.4204047 3.93250235,12.2890495 C2.42912606,12.5042007 0.965287526,9.38786918 0.536087165,8.13919142 C0.106214356,6.89051467 -0.498553686,5.06374585 1.07283874,4.09690827 C2.64355637,3.12973689 6.29561621,1.12870284 10.1219096,0.0542906577"></path>
        <path id="path-157" d="M12.6234031,0.0934996649 C13.3350529,0.0934996649 3.78876255,3.0613703 0.605772861,11.576238 C-2.02002544,18.6024792 9.17438278,42.1621316 39.5055918,74.0037436 L42.0952065,69.9282794 C11.7639952,38.0856653 1.03530827,18.263667 4.4327333,11.5759029 C7.82948353,4.8874692 15.0531965,3.81238676 14.3418818,3.81238676 C14.3418818,3.81238676 15.0129894,2.59051938 14.6236611,1.44975269 C14.2343302,0.308314742 12.6234031,0.0934996649 12.6234031,0.0934996649"></path>
        <path id="path-159" d="M13.9374766,7.26853551 C12.9705171,8.55809857 7.03675727,12.2783262 4.78018477,12.8148613 C2.5249518,13.3524026 1.4909834,11.9552649 0.845675799,10.7739474 C0.201370335,9.59162478 -0.8352825,5.15389393 1.59853461,3.65621864 C5.96190923,0.969853047 10.8627079,0.110256272 10.8627079,0.110256272 C10.8627079,0.110256272 15.1181939,1.22521864 13.9374766,7.26853551"></path>
    </defs>
    <g id="Page-1" stroke="none" stroke-width="1" fill="none" fill-rule="evenodd">
        <path d="M50.896,107.096 C49.964662,107.434668 48.8216734,107.730999 47.467,107.985 C46.1123266,108.239001 44.6518412,108.450666 43.0855,108.62 C41.5191588,108.789334 39.8681753,108.895166 38.1325,108.9375 C36.3968247,108.979834 34.7246747,108.958667 33.116,108.874 C27.7819733,108.535332 23.0618539,107.371177 18.9555,105.3815 C14.8491461,103.391823 11.399014,100.788349 8.605,97.571 C5.81098603,94.3536506 3.71550698,90.5648551 2.3185,86.2045 C0.921493015,81.8441449 0.223,77.1240254 0.223,72.044 C0.223,66.7099733 1.0696582,61.7993558 2.763,57.312 C4.4563418,52.8246442 6.84815122,48.951183 9.9385,45.6915 C13.0288488,42.431817 16.7329784,39.9130089 21.051,38.135 C25.3690216,36.3569911 30.1949733,35.468 35.529,35.468 C38.1536798,35.468 40.7994867,35.6161652 43.4665,35.9125 C46.1335133,36.2088348 48.7369873,36.7803291 51.277,37.627 C51.6156684,37.7116671 51.8696658,37.8809987 52.039,38.135 C52.2083342,38.3890013 52.2506671,38.8969962 52.166,39.659 L51.023,48.422 C50.9383329,49.0146696 50.7478348,49.4379987 50.4515,49.692 C50.1551652,49.9460013 49.6260038,49.9883342 48.864,49.819 C47.001324,49.1416633 44.8211792,48.6760013 42.3235,48.422 C39.8258208,48.1679987 37.4763443,48.041 35.275,48.041 C28.4169657,48.041 23.2100178,50.2423113 19.654,54.645 C16.0979822,59.0476887 14.32,64.8472973 14.32,72.044 C14.32,78.9867014 15.9921499,84.5746455 19.3365,88.808 C22.6808501,93.0413545 27.5279683,95.5389962 33.878,96.301 C39.7200292,96.9783367 44.9269771,96.5973405 49.499,95.158 C50.3456709,94.8193316 50.8748323,94.7769987 51.0865,95.031 C51.2981677,95.2850013 51.4463329,95.6659975 51.531,96.174 L52.166,104.937 C52.2506671,105.614337 52.2295006,106.101165 52.1025,106.3975 C51.9754994,106.693835 51.5733367,106.926666 50.896,107.096 L50.896,107.096 Z M110.205,107.477 C109.104328,107.477 108.554,106.969005 108.554,105.953 L108.554,65.186 C108.554,58.8359683 107.643842,54.2005146 105.8235,51.2795 C104.003158,48.3584854 101.103353,46.898 97.124,46.898 C88.2339556,46.898 82.6036785,50.2846328 80.233,57.058 L80.233,105.953 C80.233,106.969005 79.7250051,107.477 78.709,107.477 L68.295,107.477 C67.8716645,107.477 67.5118348,107.328835 67.2155,107.0325 C66.9191652,106.736165 66.771,106.376335 66.771,105.953 L66.771,5.877 C66.771,5.45366455 66.9191652,5.09383481 67.2155,4.7975 C67.5118348,4.50116518 67.8716645,4.353 68.295,4.353 L78.709,4.353 C79.1323355,4.353 79.4921652,4.50116518 79.7885,4.7975 C80.0848348,5.09383481 80.233,5.45366455 80.233,5.877 L80.233,40.04 C82.3496773,38.2619911 84.8261525,36.8015057 87.6625,35.6585 C90.4988475,34.5154943 93.6103164,33.944 96.997,33.944 C113.761084,33.944 122.143,44.315563 122.143,65.059 L122.143,105.953 C122.143,106.376335 121.994835,106.736165 121.6985,107.0325 C121.402165,107.328835 121.042335,107.477 120.619,107.477 L110.205,107.477 Z M196.565,75.346 C196.565,76.0233367 196.374502,76.5313316 195.9935,76.87 C195.612498,77.2086684 195.210335,77.378 194.787,77.378 L153.004,77.378 C153.427335,83.050695 155.205318,87.6861487 158.338,91.2845 C161.470682,94.8828513 165.746306,96.682 171.165,96.682 C173.959014,96.682 177.133982,96.3221703 180.69,95.6025 C184.246018,94.8828297 187.505652,93.6340089 190.469,91.856 C191.06167,91.5173316 191.442666,91.5596646 191.612,91.983 C191.781334,92.4063355 191.866,92.9566633 191.866,93.634 L191.866,102.397 C191.866,103.159004 191.739001,103.751665 191.485,104.175 C191.230999,104.598335 190.723004,105.021665 189.961,105.445 C187.420987,106.799673 184.436517,107.77333 181.0075,108.366 C177.578483,108.95867 174.086018,109.255 170.53,109.255 C160.031281,109.255 152.09386,106.101198 146.7175,99.7935 C141.34114,93.4858018 138.653,84.236061 138.653,72.044 C138.653,67.4719771 139.245661,62.9846887 140.431,58.582 C141.616339,54.1793113 143.415488,50.2423507 145.8285,46.771 C148.241512,43.2996493 151.310648,40.5056772 155.036,38.389 C158.761352,36.2723228 163.163975,35.214 168.244,35.214 C173.408692,35.214 177.790149,36.1876569 181.3885,38.135 C184.986851,40.0823431 187.928989,42.7069835 190.215,46.009 C192.501011,49.3110165 194.151995,53.1633113 195.168,57.566 C196.184005,61.9686887 196.692,66.6676417 196.692,71.663 C196.692,72.2556696 196.670834,72.9329962 196.6285,73.695 C196.586166,74.4570038 196.565,75.0073316 196.565,75.346 L196.565,75.346 Z M168.752,47.406 C166.465989,47.406 164.434009,47.9139949 162.656,48.93 C160.877991,49.9460051 159.354006,51.2583253 158.084,52.867 C156.813994,54.4756747 155.776837,56.3383228 154.9725,58.455 C154.168163,60.5716772 153.596668,62.6883227 153.258,64.805 L182.341,64.805 C182.341,63.1116582 182.065836,61.2490102 181.5155,59.217 C180.965164,57.1849898 180.139672,55.3011753 179.039,53.5655 C177.938328,51.8298247 176.541342,50.3693393 174.848,49.184 C173.154658,47.9986607 171.122679,47.406 168.752,47.406 L168.752,47.406 Z M258.541,107.096 C257.609662,107.434668 256.466673,107.730999 255.112,107.985 C253.757327,108.239001 252.296841,108.450666 250.7305,108.62 C249.164159,108.789334 247.513175,108.895166 245.7775,108.9375 C244.041825,108.979834 242.369675,108.958667 240.761,108.874 C235.426973,108.535332 230.706854,107.371177 226.6005,105.3815 C222.494146,103.391823 219.044014,100.788349 216.25,97.571 C213.455986,94.3536506 211.360507,90.5648551 209.9635,86.2045 C208.566493,81.8441449 207.868,77.1240254 207.868,72.044 C207.868,66.7099733 208.714658,61.7993558 210.408,57.312 C212.101342,52.8246442 214.493151,48.951183 217.5835,45.6915 C220.673849,42.431817 224.377978,39.9130089 228.696,38.135 C233.014022,36.3569911 237.839973,35.468 243.174,35.468 C245.79868,35.468 248.444487,35.6161652 251.1115,35.9125 C253.778513,36.2088348 256.381987,36.7803291 258.922,37.627 C259.260668,37.7116671 259.514666,37.8809987 259.684,38.135 C259.853334,38.3890013 259.895667,38.8969962 259.811,39.659 L258.668,48.422 C258.583333,49.0146696 258.392835,49.4379987 258.0965,49.692 C257.800165,49.9460013 257.271004,49.9883342 256.509,49.819 C254.646324,49.1416633 252.466179,48.6760013 249.9685,48.422 C247.470821,48.1679987 245.121344,48.041 242.92,48.041 C236.061966,48.041 230.855018,50.2423113 227.299,54.645 C223.742982,59.0476887 221.965,64.8472973 221.965,72.044 C221.965,78.9867014 223.63715,84.5746455 226.9815,88.808 C230.32585,93.0413545 235.172968,95.5389962 241.523,96.301 C247.365029,96.9783367 252.571977,96.5973405 257.144,95.158 C257.990671,94.8193316 258.519832,94.7769987 258.7315,95.031 C258.943168,95.2850013 259.091333,95.6659975 259.176,96.174 L259.811,104.937 C259.895667,105.614337 259.874501,106.101165 259.7475,106.3975 C259.620499,106.693835 259.218337,106.926666 258.541,107.096 L258.541,107.096 Z M314.802,107.477 C313.870662,107.477 313.214502,107.371168 312.8335,107.1595 C312.452498,106.947832 312.050335,106.503337 311.627,105.826 L291.307,76.743 L285.338,83.601 L285.338,105.953 C285.338,106.969005 284.787672,107.477 283.687,107.477 L273.4,107.477 C272.976665,107.477 272.616835,107.328835 272.3205,107.0325 C272.024165,106.736165 271.876,106.376335 271.876,105.953 L271.876,5.877 C271.876,5.45366455 272.024165,5.09383481 272.3205,4.7975 C272.616835,4.50116518 272.976665,4.353 273.4,4.353 L283.687,4.353 C284.195003,4.353 284.597165,4.50116518 284.8935,4.7975 C285.189835,5.09383481 285.338,5.45366455 285.338,5.877 L285.338,64.17 L309.468,38.262 C310.145337,37.4999962 310.822663,37.119 311.5,37.119 L324.073,37.119 C325.681675,37.119 325.935672,37.7116607 324.835,38.897 L300.07,66.456 L327.629,105.826 C328.475671,106.926672 328.179341,107.477 326.74,107.477 L314.802,107.477 Z M384.398,107.223 C383.974665,107.223 383.614835,107.117168 383.3185,106.9055 C383.022165,106.693832 382.916333,106.376335 383.001,105.953 L383.001,100.873 C380.799656,103.582347 378.111516,105.656659 374.9365,107.096 C371.761484,108.535341 368.438351,109.255 364.967,109.255 C356.754292,109.255 350.61602,106.842024 346.552,102.016 C342.48798,97.1899759 340.456,90.2897115 340.456,81.315 L340.456,38.77 C340.456,38.3466645 340.604165,37.9445019 340.9005,37.5635 C341.196835,37.1824981 341.556665,36.992 341.98,36.992 L352.394,36.992 C352.817335,36.992 353.198332,37.2036646 353.537,37.627 C353.875668,38.0503354 354.045,38.4736645 354.045,38.897 L354.045,79.283 C354.045,85.6330317 355.082156,90.1203202 357.1565,92.745 C359.230844,95.3696798 362.29998,96.682 366.364,96.682 C370.936023,96.682 374.724818,94.9463507 377.7305,91.475 C380.736182,88.0036493 382.239,82.8390343 382.239,75.981 L382.239,38.77 C382.239,38.3466645 382.387165,37.9445019 382.6835,37.5635 C382.979835,37.1824981 383.339665,36.992 383.763,36.992 L394.304,36.992 C394.727335,36.992 395.087165,37.224831 395.3835,37.6905 C395.679835,38.156169 395.828,38.6006645 395.828,39.024 L395.828,90.84 C395.828,93.4646798 395.870333,96.0469873 395.955,98.587 C396.039667,101.127013 396.082,103.455323 396.082,105.572 C396.082,106.672672 395.616338,107.223 394.685,107.223 L384.398,107.223 Z M447.009,110.398 C443.622316,110.398 440.362682,109.678341 437.23,108.239 C434.097318,106.799659 431.472677,104.852346 429.356,102.397 L429.356,125.003 C429.356,125.680337 429.271334,126.124832 429.102,126.3365 C428.932666,126.548168 428.55167,126.654 427.959,126.654 L417.418,126.654 C416.909997,126.654 416.529001,126.548168 416.275,126.3365 C416.020999,126.124832 415.894,125.680337 415.894,125.003 L415.894,38.897 C415.894,37.5423266 416.528994,36.865 417.799,36.865 L427.578,36.865 C428.763339,36.865 429.356,37.5423266 429.356,38.897 L429.356,43.469 C431.726679,41.0136544 434.393652,39.1086734 437.357,37.754 C440.320348,36.3993266 443.537649,35.722 447.009,35.722 C451.581023,35.722 455.666149,36.5898247 459.2645,38.3255 C462.862851,40.0611753 465.910821,42.5376506 468.4085,45.755 C470.906179,48.9723494 472.81116,52.9093101 474.1235,57.566 C475.43584,62.22269 476.092,67.4719708 476.092,73.314 C476.092,78.986695 475.414673,84.1089771 474.06,88.681 C472.705327,93.2530229 470.779179,97.1476506 468.2815,100.365 C465.783821,103.582349 462.735851,106.058825 459.1375,107.7945 C455.539149,109.530175 451.496356,110.398 447.009,110.398 L447.009,110.398 Z M445.612,48.676 C443.410656,48.676 441.336343,49.2051614 439.389,50.2635 C437.441657,51.3218386 435.727174,52.8881563 434.2455,54.9625 C432.763826,57.0368437 431.578504,59.5979848 430.6895,62.646 C429.800496,65.6940152 429.356,69.2076468 429.356,73.187 C429.356,81.4843748 430.837652,87.6226468 433.801,91.602 C436.764348,95.5813532 440.701309,97.571 445.612,97.571 C450.86136,97.571 454.882986,95.4543545 457.677,91.221 C460.471014,86.9876455 461.868,80.9763723 461.868,73.187 C461.868,64.9742923 460.428681,58.8360203 457.55,54.772 C454.671319,50.7079797 450.692025,48.676 445.612,48.676 L445.612,48.676 Z" id="checkup" fill="url(#linearGradient-1)"></path>
        <g id="STETHOSCOPE" transform="translate(484.000000, 0.000000)">
            <path d="M51.370236,66.7191178 C66.9752658,78.3469675 78.763384,82.3001039 89.5302634,80.3228658 C100.297475,78.3469675 104.052736,73.3160613 106.666808,65.7335156 C109.278867,58.1519722 105.391602,47 105.391602,47 L106.613864,47.5160908 C106.620571,47.534188 109.430646,54.3640463 109.320748,62.1885576 C109.210851,70.0489256 104.841448,81.1536428 92.979276,85.1114737 C83.0942532,88.4091067 72.6644343,84.4358588 64.6493322,80.3061082 C56.6151299,76.1649647 51.0154144,71.2151605 51,71.2017578 L51.3702356,66.7191175" id="Shape" fill="url(#linearGradient-2)"></path>
            <g id="Clipped" transform="translate(50.000000, 47.000000)">
                <mask id="mask-4" fill="white">
                    <use xlink:href="#path-3"></use>
                </mask>
                <g id="XMLID_1_"></g>
                <rect id="Rectangle-path" fill="#FFFFFF" mask="url(#mask-4)" x="36.5795876" y="30.9424677" width="5.3092268" height="11.9586165"></rect>
            </g>
            <g id="Clipped" transform="translate(87.000000, 25.000000)">
                <mask id="mask-6" fill="white">
                    <use xlink:href="#path-5"></use>
                </mask>
                <g id="XMLID_3_"></g>
                <g id="Group" mask="url(#mask-6)">
                    <g transform="translate(-36.185567, 21.448029)" id="Clipped">
                        <g>
                            <mask id="mask-8" fill="white">
                                <use xlink:href="#path-7"></use>
                            </mask>
                            <g id="XMLID_5_"></g>
                            <path d="M36.965232,59.4978369 L36.2066753,59.364457 L50.4282732,-21.2995681 L51.1861598,-21.165853" id="Shape" fill="#6D6F71" mask="url(#mask-8)"></path>
                        </g>
                        <g>
                            <mask id="mask-10" fill="white">
                                <use xlink:href="#path-9"></use>
                            </mask>
                            <g id="XMLID_5_"></g>
                            <path d="M37.7234536,59.631552 L36.965232,59.4978369 L51.1861598,-21.165853 L51.9443814,-21.0324731" id="Shape" fill="#808284" mask="url(#mask-10)"></path>
                        </g>
                        <g>
                            <mask id="mask-12" fill="white">
                                <use xlink:href="#path-11"></use>
                            </mask>
                            <g id="XMLID_5_"></g>
                            <path d="M38.4820103,59.7656022 L37.7234536,59.631552 L51.9443814,-21.0324731 L52.7026031,-20.8984229" id="Shape" fill="#939598" mask="url(#mask-12)"></path>
                        </g>
                        <g>
                            <mask id="mask-14" fill="white">
                                <use xlink:href="#path-13"></use>
                            </mask>
                            <g id="XMLID_5_"></g>
                            <path d="M39.240567,59.8989821 L38.4820103,59.7656022 L52.7026031,-20.8984229 L53.4601546,-20.7640376" id="Shape" fill="#A7A9AC" mask="url(#mask-14)"></path>
                        </g>
                        <g>
                            <mask id="mask-16" fill="white">
                                <use xlink:href="#path-15"></use>
                            </mask>
                            <g id="XMLID_5_"></g>
                            <path d="M39.9981186,60.0337025 L39.240567,59.8989821 L53.4601546,-20.7640376 L54.2183763,-20.6309928" id="Shape" fill="#BCBEC0" mask="url(#mask-16)"></path>
                        </g>
                        <g>
                            <mask id="mask-18" fill="white">
                                <use xlink:href="#path-17"></use>
                            </mask>
                            <g id="XMLID_5_"></g>
                            <path d="M40.7563402,60.1674176 L39.9981186,60.0337025 L54.2183763,-20.6309928 L54.977268,-20.4972778" id="Shape" fill="#D1D3D4" mask="url(#mask-18)"></path>
                        </g>
                    </g>
                </g>
            </g>
            <g id="Clipped" transform="translate(80.000000, 25.000000)">
                <mask id="mask-20" fill="white">
                    <use xlink:href="#path-19"></use>
                </mask>
                <g id="XMLID_7_"></g>
                <g id="Group" mask="url(#mask-20)">
                    <g transform="translate(-29.484536, 21.448029)" id="Clipped">
                        <g>
                            <mask id="mask-22" fill="white">
                                <use xlink:href="#path-21"></use>
                            </mask>
                            <g id="XMLID_9_"></g>
                            <path d="M47.6677835,-20.6266362 L48.4253351,-20.4932563 L34.2054124,60.1714391 L33.4465206,60.0373889" id="Shape" fill="#6D6F71" mask="url(#mask-22)"></path>
                        </g>
                        <g>
                            <mask id="mask-24" fill="white">
                                <use xlink:href="#path-23"></use>
                            </mask>
                            <g id="XMLID_9_"></g>
                            <path d="M46.9092268,-20.7600161 L47.6677835,-20.6266362 L33.4465206,60.0373889 L32.688299,59.904009" id="Shape" fill="#808284" mask="url(#mask-24)"></path>
                        </g>
                        <g>
                            <mask id="mask-26" fill="white">
                                <use xlink:href="#path-25"></use>
                            </mask>
                            <g id="XMLID_9_"></g>
                            <path d="M46.1493299,-20.8937312 L46.9092268,-20.7600161 L32.688299,59.904009 L31.9300773,59.7696237" id="Shape" fill="#939598" mask="url(#mask-26)"></path>
                        </g>
                        <g>
                            <mask id="mask-28" fill="white">
                                <use xlink:href="#path-27"></use>
                            </mask>
                            <g id="XMLID_9_"></g>
                            <path d="M45.3924485,-21.0271111 L46.1493299,-20.8937312 L31.9300773,59.7696237 L31.1721907,59.6355735" id="Shape" fill="#A7A9AC" mask="url(#mask-28)"></path>
                        </g>
                        <g>
                            <mask id="mask-30" fill="white">
                                <use xlink:href="#path-29"></use>
                            </mask>
                            <g id="XMLID_9_"></g>
                            <path d="M44.6338918,-21.1618315 L45.3924485,-21.0271111 L31.1721907,59.6355735 L30.413634,59.5021935" id="Shape" fill="#BCBEC0" mask="url(#mask-30)"></path>
                        </g>
                        <g>
                            <mask id="mask-32" fill="white">
                                <use xlink:href="#path-31"></use>
                            </mask>
                            <g id="XMLID_9_"></g>
                            <path d="M43.8756701,-21.2952115 L44.6338918,-21.1618315 L30.413634,59.5021935 L29.6557474,59.3684785" id="Shape" fill="#D1D3D4" mask="url(#mask-32)"></path>
                        </g>
                    </g>
                </g>
            </g>
            <g id="Clipped" transform="translate(53.000000, 4.000000)">
                <mask id="mask-34" fill="white">
                    <use xlink:href="#path-33"></use>
                </mask>
                <g id="XMLID_11_"></g>
                <g id="Group" mask="url(#mask-34)">
                    <g transform="translate(-2.345361, 42.560932)" id="Clipped">
                        <g>
                            <mask id="mask-36" fill="white">
                                <use xlink:href="#path-35"></use>
                            </mask>
                            <g id="XMLID_13_"></g>
                            <path d="M3.42322165,38.2964606 L2.6656701,38.1627455 L16.8862629,-42.5012796 L17.6438144,-42.3675645" id="Shape" fill="#6D6F71" mask="url(#mask-36)"></path>
                        </g>
                        <g>
                            <mask id="mask-38" fill="white">
                                <use xlink:href="#path-37"></use>
                            </mask>
                            <g id="XMLID_13_"></g>
                            <path d="M4.18043814,38.4301756 L3.42322165,38.2964606 L17.6438144,-42.3675645 L18.4010309,-42.2328441" id="Shape" fill="#808284" mask="url(#mask-38)"></path>
                        </g>
                        <g>
                            <mask id="mask-40" fill="white">
                                <use xlink:href="#path-39"></use>
                            </mask>
                            <g id="XMLID_13_"></g>
                            <path d="M4.93865979,38.5638907 L4.18043814,38.4301756 L18.4010309,-42.2328441 L19.1575773,-42.1001344" id="Shape" fill="#939598" mask="url(#mask-40)"></path>
                        </g>
                        <g>
                            <mask id="mask-42" fill="white">
                                <use xlink:href="#path-41"></use>
                            </mask>
                            <g id="XMLID_13_"></g>
                            <path d="M5.69587629,38.6966004 L4.93865979,38.5638907 L19.1575773,-42.1001344 L19.915799,-41.9660842" id="Shape" fill="#A7A9AC" mask="url(#mask-42)"></path>
                        </g>
                        <g>
                            <mask id="mask-44" fill="white">
                                <use xlink:href="#path-43"></use>
                            </mask>
                            <g id="XMLID_13_"></g>
                            <path d="M6.45309278,38.8303154 L5.69587629,38.6966004 L19.915799,-41.9660842 L20.6723454,-41.8323692" id="Shape" fill="#BCBEC0" mask="url(#mask-44)"></path>
                        </g>
                        <g>
                            <mask id="mask-46" fill="white">
                                <use xlink:href="#path-45"></use>
                            </mask>
                            <g id="XMLID_13_"></g>
                            <path d="M7.21030928,38.9643656 L6.45309278,38.8303154 L20.6723454,-41.8323692 L21.430567,-41.6989892" id="Shape" fill="#D1D3D4" mask="url(#mask-46)"></path>
                        </g>
                    </g>
                </g>
            </g>
            <g id="Clipped" transform="translate(106.000000, 6.000000)">
                <mask id="mask-48" fill="white">
                    <use xlink:href="#path-47"></use>
                </mask>
                <g id="XMLID_15_"></g>
                <g id="Group" mask="url(#mask-48)">
                    <g transform="translate(-55.618557, 41.220430)" id="Clipped">
                        <g>
                            <mask id="mask-50" fill="white">
                                <use xlink:href="#path-49"></use>
                            </mask>
                            <g id="XMLID_17_"></g>
                            <rect id="Rectangle-path" fill="#939598" mask="url(#mask-50)" x="58.0503608" y="-41.1182168" width="0.769613402" height="81.9076756"></rect>
                        </g>
                        <g>
                            <mask id="mask-52" fill="white">
                                <use xlink:href="#path-51"></use>
                            </mask>
                            <g id="XMLID_17_"></g>
                            <rect id="Rectangle-path" fill="#A7A9AC" mask="url(#mask-52)" x="57.2794072" y="-41.1182168" width="0.770283505" height="81.9076756"></rect>
                        </g>
                        <g>
                            <mask id="mask-54" fill="white">
                                <use xlink:href="#path-53"></use>
                            </mask>
                            <g id="XMLID_17_"></g>
                            <rect id="Rectangle-path" fill="#BCBEC0" mask="url(#mask-54)" x="56.5097938" y="-41.1182168" width="0.769613402" height="81.9076756"></rect>
                        </g>
                        <g>
                            <mask id="mask-56" fill="white">
                                <use xlink:href="#path-55"></use>
                            </mask>
                            <g id="XMLID_17_"></g>
                            <rect id="Rectangle-path" fill="#D1D3D4" mask="url(#mask-56)" x="55.7401804" y="-41.1182168" width="0.769613402" height="81.9076756"></rect>
                        </g>
                    </g>
                </g>
            </g>
            <path d="M51.370236,66.7191178 C66.9752658,78.3469675 78.763384,82.3001039 89.5302634,80.3228658 C100.297475,78.3469675 104.052736,73.3160613 106.666808,65.7335156 C109.278867,58.1519722 105.391602,47 105.391602,47 L106.613864,47.5160908 C106.620571,47.534188 109.430646,54.3640463 109.320748,62.1885576 C109.210851,70.0489256 104.841448,81.1536428 92.979276,85.1114737 C83.0942532,88.4091067 72.6644343,84.4358588 64.6493322,80.3061082 C56.6151299,76.1649647 51.0154144,71.2151605 51,71.2017578 L51.3702356,66.7191175 L51.370236,66.7191178 Z" id="Shape" fill="url(#linearGradient-2)"></path>
            <ellipse id="Oval" fill="url(#linearGradient-2)" cx="14.8943814" cy="94.8976667" rx="14.8943814" ry="14.8976667"></ellipse>
            <ellipse id="Oval" cx="14.8943814" cy="94.8976667" rx="14.8943814" ry="14.8976667"></ellipse>
            <g id="Group" transform="translate(3.000000, 81.000000)">
                <g id="Clipped">
                    <mask id="mask-58" fill="white">
                        <use xlink:href="#path-57"></use>
                    </mask>
                    <g id="XMLID_19_"></g>
                    <path d="M16.0107732,-4.31440502 L16.6892526,-4.77218638 L31.3360309,16.9469588 L30.6572165,17.4057455" id="Shape" fill="#E7E7E8" mask="url(#mask-58)"></path>
                </g>
                <g id="Clipped">
                    <mask id="mask-60" fill="white">
                        <use xlink:href="#path-59"></use>
                    </mask>
                    <g id="XMLID_19_"></g>
                    <path d="M15.3319588,-3.85662366 L16.0107732,-4.31440502 L30.6572165,17.4057455 L29.9790722,17.8635269" id="Shape" fill="#E3E4E5" mask="url(#mask-60)"></path>
                </g>
                <g id="Clipped">
                    <mask id="mask-62" fill="white">
                        <use xlink:href="#path-61"></use>
                    </mask>
                    <g id="XMLID_19_"></g>
                    <path d="M14.6524742,-3.39884229 L15.3319588,-3.85662366 L29.9790722,17.8635269 L29.3005928,18.3213082" id="Shape" fill="#E1E2E3" mask="url(#mask-62)"></path>
                </g>
                <g id="Clipped">
                    <mask id="mask-64" fill="white">
                        <use xlink:href="#path-63"></use>
                    </mask>
                    <g id="XMLID_19_"></g>
                    <path d="M13.9743299,-2.94106093 L14.6524742,-3.39884229 L29.3005928,18.3213082 L28.6207732,18.7780842" id="Shape" fill="#DEDFE1" mask="url(#mask-64)"></path>
                </g>
                <g id="Clipped">
                    <mask id="mask-66" fill="white">
                        <use xlink:href="#path-65"></use>
                    </mask>
                    <g id="XMLID_19_"></g>
                    <path d="M13.2958505,-2.48327957 L13.9743299,-2.94106093 L28.6207732,18.7780842 L27.9422938,19.2365358" id="Shape" fill="#DBDCDD" mask="url(#mask-66)"></path>
                </g>
                <g id="Clipped">
                    <mask id="mask-68" fill="white">
                        <use xlink:href="#path-67"></use>
                    </mask>
                    <g id="XMLID_19_"></g>
                    <path d="M12.6173711,-2.02482796 L13.2958505,-2.48327957 L27.9422938,19.2365358 L27.2641495,19.6946523" id="Shape" fill="#D9DADB" mask="url(#mask-68)"></path>
                </g>
                <g id="Clipped">
                    <mask id="mask-70" fill="white">
                        <use xlink:href="#path-69"></use>
                    </mask>
                    <g id="XMLID_19_"></g>
                    <path d="M11.9388918,-1.56771685 L12.6173711,-2.02482796 L27.2641495,19.6946523 L26.5856701,20.1524337" id="Shape" fill="#D6D7D9" mask="url(#mask-70)"></path>
                </g>
                <g id="Clipped">
                    <mask id="mask-72" fill="white">
                        <use xlink:href="#path-71"></use>
                    </mask>
                    <g id="XMLID_19_"></g>
                    <path d="M11.2604124,-1.10993548 L11.9388918,-1.56771685 L26.5856701,20.1524337 L25.9071907,20.6102151" id="Shape" fill="#D4D5D6" mask="url(#mask-72)"></path>
                </g>
                <g id="Clipped">
                    <mask id="mask-74" fill="white">
                        <use xlink:href="#path-73"></use>
                    </mask>
                    <g id="XMLID_19_"></g>
                    <path d="M10.581933,-0.652154122 L11.2604124,-1.10993548 L25.9071907,20.6102151 L25.2287113,21.0676613" id="Shape" fill="#D0D2D3" mask="url(#mask-74)"></path>
                </g>
                <g id="Clipped">
                    <mask id="mask-76" fill="white">
                        <use xlink:href="#path-75"></use>
                    </mask>
                    <g id="XMLID_19_"></g>
                    <path d="M9.90311856,-0.193702509 L10.581933,-0.652154122 L25.2287113,21.0676613 L24.5498969,21.5254427" id="Shape" fill="#CECFD1" mask="url(#mask-76)"></path>
                </g>
                <g id="Clipped">
                    <mask id="mask-78" fill="white">
                        <use xlink:href="#path-77"></use>
                    </mask>
                    <g id="XMLID_19_"></g>
                    <path d="M9.22463918,0.264078853 L9.90311856,-0.193702509 L24.5498969,21.5254427 L23.8717526,21.9835591" id="Shape" fill="#CBCDCF" mask="url(#mask-78)"></path>
                </g>
                <g id="Clipped">
                    <mask id="mask-80" fill="white">
                        <use xlink:href="#path-79"></use>
                    </mask>
                    <g id="XMLID_19_"></g>
                    <path d="M8.54649485,0.720854839 L9.22463918,0.264078853 L23.8717526,21.9835591 L23.1929381,22.4413405" id="Shape" fill="#C8CACB" mask="url(#mask-80)"></path>
                </g>
                <g id="Clipped">
                    <mask id="mask-82" fill="white">
                        <use xlink:href="#path-81"></use>
                    </mask>
                    <g id="XMLID_19_"></g>
                    <path d="M7.86667526,1.17897133 L8.54649485,0.720854839 L23.1929381,22.4413405 L22.5144588,22.8997921" id="Shape" fill="#C5C7C9" mask="url(#mask-82)"></path>
                </g>
                <g id="Clipped">
                    <mask id="mask-84" fill="white">
                        <use xlink:href="#path-83"></use>
                    </mask>
                    <g id="XMLID_19_"></g>
                    <path d="M7.18853093,1.63742294 L7.86667526,1.17897133 L22.5144588,22.8997921 L21.8363144,23.3565681" id="Shape" fill="#C3C5C7" mask="url(#mask-84)"></path>
                </g>
                <g id="Clipped">
                    <mask id="mask-86" fill="white">
                        <use xlink:href="#path-85"></use>
                    </mask>
                    <g id="XMLID_19_"></g>
                    <path d="M6.51005155,2.09486918 L7.18853093,1.63742294 L21.8363144,23.3565681 L21.1568299,23.8146846" id="Shape" fill="#C0C1C3" mask="url(#mask-86)"></path>
                </g>
                <g id="Clipped">
                    <mask id="mask-88" fill="white">
                        <use xlink:href="#path-87"></use>
                    </mask>
                    <g id="XMLID_19_"></g>
                    <path d="M5.83123711,2.55298566 L6.51005155,2.09486918 L21.1568299,23.8146846 L20.4780155,24.2724659" id="Shape" fill="#BDBFC1" mask="url(#mask-88)"></path>
                </g>
                <g id="Clipped">
                    <mask id="mask-90" fill="white">
                        <use xlink:href="#path-89"></use>
                    </mask>
                    <g id="XMLID_19_"></g>
                    <path d="M5.15275773,3.0104319 L5.83123711,2.55298566 L20.4780155,24.2724659 L19.7995361,24.7309176" id="Shape" fill="#BBBCBF" mask="url(#mask-90)"></path>
                </g>
                <g id="Clipped">
                    <mask id="mask-92" fill="white">
                        <use xlink:href="#path-91"></use>
                    </mask>
                    <g id="XMLID_19_"></g>
                    <path d="M4.47427835,3.46854839 L5.15275773,3.0104319 L19.7995361,24.7309176 L19.1210567,25.1883638" id="Shape" fill="#B8BABC" mask="url(#mask-92)"></path>
                </g>
                <g id="Clipped">
                    <mask id="mask-94" fill="white">
                        <use xlink:href="#path-93"></use>
                    </mask>
                    <g id="XMLID_19_"></g>
                    <path d="M3.79613402,3.92599462 L4.47427835,3.46854839 L19.1210567,25.1883638 L18.4425773,25.6454749" id="Shape" fill="#B5B7B9" mask="url(#mask-94)"></path>
                </g>
                <g id="Clipped">
                    <mask id="mask-96" fill="white">
                        <use xlink:href="#path-95"></use>
                    </mask>
                    <g id="XMLID_19_"></g>
                    <path d="M3.11765464,4.38411111 L3.79613402,3.92599462 L18.4425773,25.6454749 L17.7640979,26.1035914" id="Shape" fill="#B2B4B7" mask="url(#mask-96)"></path>
                </g>
                <g id="Clipped">
                    <mask id="mask-98" fill="white">
                        <use xlink:href="#path-97"></use>
                    </mask>
                    <g id="XMLID_19_"></g>
                    <path d="M2.43850515,4.84155735 L3.11765464,4.38411111 L17.7640979,26.1035914 L17.0859536,26.562043" id="Shape" fill="#B0B2B4" mask="url(#mask-98)"></path>
                </g>
                <g id="Clipped">
                    <mask id="mask-100" fill="white">
                        <use xlink:href="#path-99"></use>
                    </mask>
                    <g id="XMLID_19_"></g>
                    <path d="M1.76036082,5.29933871 L2.43850515,4.84155735 L17.0859536,26.562043 L16.4074742,27.0194892" id="Shape" fill="#ADAFB1" mask="url(#mask-100)"></path>
                </g>
                <g id="Clipped">
                    <mask id="mask-102" fill="white">
                        <use xlink:href="#path-101"></use>
                    </mask>
                    <g id="XMLID_19_"></g>
                    <path d="M1.08188144,5.75712007 L1.76036082,5.29933871 L16.4074742,27.0194892 L15.7283247,27.4772706" id="Shape" fill="#AAACAF" mask="url(#mask-102)"></path>
                </g>
                <g id="Clipped">
                    <mask id="mask-104" fill="white">
                        <use xlink:href="#path-103"></use>
                    </mask>
                    <g id="XMLID_19_"></g>
                    <path d="M0.402396907,6.21490143 L1.08188144,5.75712007 L15.7283247,27.4772706 L15.0501804,27.935052" id="Shape" fill="#A8AAAC" mask="url(#mask-104)"></path>
                </g>
                <g id="Clipped">
                    <mask id="mask-106" fill="white">
                        <use xlink:href="#path-105"></use>
                    </mask>
                    <g id="XMLID_19_"></g>
                    <path d="M-0.276082474,6.6726828 L0.402396907,6.21490143 L15.0501804,27.935052 L14.371701,28.3931685" id="Shape" fill="#A5A7A9" mask="url(#mask-106)"></path>
                </g>
                <g id="Clipped">
                    <mask id="mask-108" fill="white">
                        <use xlink:href="#path-107"></use>
                    </mask>
                    <g id="XMLID_19_"></g>
                    <path d="M-0.954561856,7.13046416 L-0.276082474,6.6726828 L14.371701,28.3931685 L13.6925515,28.8506147" id="Shape" fill="#A2A4A7" mask="url(#mask-108)"></path>
                </g>
                <g id="Clipped">
                    <mask id="mask-110" fill="white">
                        <use xlink:href="#path-109"></use>
                    </mask>
                    <g id="XMLID_19_"></g>
                    <path d="M-1.63304124,7.5892509 L-0.954561856,7.13046416 L13.6925515,28.8506147 L13.0134021,29.3083961" id="Shape" fill="#A0A2A5" mask="url(#mask-110)"></path>
                </g>
                <g id="Clipped">
                    <mask id="mask-112" fill="white">
                        <use xlink:href="#path-111"></use>
                    </mask>
                    <g id="XMLID_19_"></g>
                    <path d="M-2.31152062,8.04602688 L-1.63304124,7.5892509 L13.0134021,29.3083961 L12.3352577,29.7661774" id="Shape" fill="#9DA0A2" mask="url(#mask-112)"></path>
                </g>
                <g id="Clipped">
                    <mask id="mask-114" fill="white">
                        <use xlink:href="#path-113"></use>
                    </mask>
                    <g id="XMLID_19_"></g>
                    <path d="M-2.99,8.50380824 L-2.31152062,8.04602688 L12.3352577,29.7661774 L11.6567784,30.224629" id="Shape" fill="#9A9D9F" mask="url(#mask-114)"></path>
                </g>
                <g id="Clipped">
                    <mask id="mask-116" fill="white">
                        <use xlink:href="#path-115"></use>
                    </mask>
                    <g id="XMLID_19_"></g>
                    <path d="M-3.66847938,8.96158961 L-2.99,8.50380824 L11.6567784,30.224629 L10.978299,30.6817401" id="Shape" fill="#989A9D" mask="url(#mask-116)"></path>
                </g>
                <g id="Clipped">
                    <mask id="mask-118" fill="white">
                        <use xlink:href="#path-117"></use>
                    </mask>
                    <g id="XMLID_19_"></g>
                    <path d="M-4.34695876,9.42037634 L-3.66847938,8.96158961 L10.978299,30.6817401 L10.2998196,31.1395215" id="Shape" fill="#96989B" mask="url(#mask-118)"></path>
                </g>
                <g id="Clipped">
                    <mask id="mask-120" fill="white">
                        <use xlink:href="#path-119"></use>
                    </mask>
                    <g id="XMLID_19_"></g>
                    <path d="M-5.0257732,9.87815771 L-4.34695876,9.42037634 L10.2998196,31.1395215 L9.62134021,31.5973029" id="Shape" fill="#939598" mask="url(#mask-120)"></path>
                </g>
            </g>
            <ellipse id="Oval" fill="url(#linearGradient-2)" cx="16.0961598" cy="94.0990484" rx="13.0961598" ry="13.0990484"></ellipse>
            <ellipse id="Oval" fill="url(#linearGradient-2)" cx="15.9017784" cy="92.9039624" rx="9.90177835" ry="9.90396237"></ellipse>
            <ellipse id="Oval" fill="url(#linearGradient-2)" cx="15.9017784" cy="92.9039624" rx="9.90177835" ry="9.90396237"></ellipse>
            <g id="Group" transform="translate(7.000000, 84.000000)">
                <g id="Clipped">
                    <mask id="mask-122" fill="white">
                        <use xlink:href="#path-121"></use>
                    </mask>
                    <g id="XMLID_23_"></g>
                    <path d="M128.755949,17.5599066 L128.755949,17.5599066 C128.755949,22.3069616 124.903531,26.158552 120.158863,26.158552 C115.413867,26.158552 111.562451,22.3069616 111.562451,17.5599066 C111.562451,12.8138643 115.413867,8.96192607 120.158863,8.96192607 C124.903531,8.96225349 128.755949,12.8138539 128.755949,17.5599066 M129.66864,17.5277319 C129.66864,12.2826831 125.412142,8.02491867 120.167575,8.02491867 C114.92268,8.02491867 110.665855,12.2826831 110.665855,17.5277319 C110.665855,22.7737829 114.922681,27.0315574 120.167575,27.0315574 C125.412142,27.0315574 129.66864,22.7737829 129.66864,17.5277319" id="Shape" fill="#E7E7E8" mask="url(#mask-122)"></path>
                </g>
                <g id="Clipped">
                    <mask id="mask-124" fill="white">
                        <use xlink:href="#path-123"></use>
                    </mask>
                    <g id="XMLID_23_"></g>
                    <path d="M127.850641,17.5599066 L127.850641,17.5599066 C127.850641,21.8072902 124.404308,25.2537193 120.158863,25.2537193 C115.912763,25.2537193 112.467084,21.8072902 112.467084,17.5599066 C112.467084,13.3138628 115.912426,9.8667688 120.158863,9.8667688 C124.404308,9.86709622 127.850641,13.3138625 127.850641,17.5599066 M128.763996,17.5277319 C128.763996,12.7816896 124.91258,8.93008882 120.167574,8.93008882 C115.421904,8.93008882 111.570488,12.7816893 111.570488,17.5277319 C111.570488,22.2747868 115.421904,26.1263772 120.167574,26.1263772 C124.91258,26.1263772 128.763996,22.2747868 128.763996,17.5277319" id="Shape" fill="#D9DBDC" mask="url(#mask-124)"></path>
                </g>
                <g id="Clipped">
                    <mask id="mask-126" fill="white">
                        <use xlink:href="#path-125"></use>
                    </mask>
                    <g id="XMLID_23_"></g>
                    <path d="M126.945671,17.5599066 L126.945671,17.5599066 C126.945671,21.3072817 123.904737,24.3488766 120.158863,24.3488766 C116.411987,24.3488766 113.371053,21.3072817 113.371053,17.5599066 C113.371053,13.8125315 116.411987,10.7722764 120.158863,10.7722764 C123.904737,10.7722764 126.945671,13.8128689 126.945671,17.5599066 M127.859016,17.5779987 C127.859016,13.3309525 124.41302,9.88419633 120.167237,9.88419633 C115.921138,9.88419633 112.475132,13.3309525 112.475132,17.5779987 C112.475132,21.8250448 115.921138,25.270809 120.167237,25.270809 C124.413347,25.270809 127.859016,21.8250448 127.859016,17.5779987" id="Shape" fill="#CDCED0" mask="url(#mask-126)"></path>
                </g>
                <g id="Clipped">
                    <mask id="mask-128" fill="white">
                        <use xlink:href="#path-127"></use>
                    </mask>
                    <g id="XMLID_23_"></g>
                    <path d="M126.04069,17.5599066 L126.04069,17.5599066 C126.04069,20.8072728 123.405513,23.4440439 120.158863,23.4440439 C116.911548,23.4440439 114.276371,20.8076106 114.276371,17.5599066 C114.276371,14.3128778 116.911548,11.6771192 120.158863,11.6771192 C123.405513,11.6771088 126.04069,14.3128775 126.04069,17.5599066 M126.953708,17.5779987 C126.953708,13.829959 123.912784,10.7890287 120.167574,10.7890287 C116.420699,10.7890287 113.380439,13.8299587 113.380439,17.5779987 C113.380439,21.3243714 116.420698,24.3659663 120.167574,24.3659663 C123.913121,24.3659663 126.953708,21.3243714 126.953708,17.5779987" id="Shape" fill="#C0C2C4" mask="url(#mask-128)"></path>
                </g>
                <g id="Clipped">
                    <mask id="mask-130" fill="white">
                        <use xlink:href="#path-129"></use>
                    </mask>
                    <g id="XMLID_23_"></g>
                    <path d="M125.13572,17.5599066 L125.13572,17.5599066 C125.13572,20.3082667 122.905952,22.5378613 120.158863,22.5378613 C117.410772,22.5378613 115.181341,20.3082667 115.181341,17.5599066 C115.181341,14.8125488 117.410772,12.5819518 120.158863,12.5819518 C122.905952,12.5822893 125.13572,14.8128759 125.13572,17.5599066 M126.049075,17.5779987 C126.049075,14.3306324 123.41356,11.6948738 120.167575,11.6948738 C116.920924,11.6948738 114.28541,14.3302946 114.28541,17.5779987 C114.28541,20.8250274 116.920924,23.4611236 120.167575,23.4611236 C123.41356,23.4611236 126.049075,20.8253653 126.049075,17.5779987" id="Shape" fill="#B3B5B7" mask="url(#mask-130)"></path>
                </g>
                <g id="Clipped">
                    <mask id="mask-132" fill="white">
                        <use xlink:href="#path-131"></use>
                    </mask>
                    <g id="XMLID_23_"></g>
                    <path d="M124.230749,17.5599066 L124.230749,17.5599066 C124.230749,19.8085953 122.406054,21.6330186 120.158863,21.6330186 C117.911335,21.6330186 116.085985,19.8085957 116.085985,17.5599066 C116.085985,15.3118824 117.911007,13.4881344 120.158863,13.4881344 C122.406054,13.488124 124.230749,15.3118824 124.230749,17.5599066 M125.094513,17.5779987 C125.094513,14.829976 122.864746,12.6000439 120.117656,12.6000439 C117.370567,12.6000439 115.140799,14.829976 115.140799,17.5779987 C115.140799,20.3253564 117.370567,22.5559534 120.117656,22.5559534 C122.864746,22.5559534 125.094513,20.3253564 125.094513,17.5779987" id="Shape" fill="#A7A9AC" mask="url(#mask-132)"></path>
                </g>
                <g id="Clipped">
                    <mask id="mask-134" fill="white">
                        <use xlink:href="#path-133"></use>
                    </mask>
                    <g id="XMLID_23_"></g>
                    <path d="M123.325779,17.5599066 L123.325779,17.5599066 C123.325779,19.3092618 121.90683,20.7278484 120.158863,20.7278484 C118.410568,20.7278484 116.991293,19.3092618 116.991293,17.5599066 C116.991293,15.8115538 118.410568,14.3929671 120.158863,14.3929671 C121.906493,14.3929671 123.325779,15.8118912 123.325779,17.5599066 M124.239124,17.5779987 C124.239124,15.3296474 122.41544,13.5048866 120.167575,13.5048866 C117.919719,13.5048866 116.095698,15.3293096 116.095698,17.5779987 C116.095698,19.8263603 117.919719,21.6507833 120.167575,21.6507833 C122.415103,21.6507833 124.239124,19.8263603 124.239124,17.5779987" id="Shape" fill="#9B9DA0" mask="url(#mask-134)"></path>
                </g>
                <g id="Clipped">
                    <mask id="mask-136" fill="white">
                        <use xlink:href="#path-135"></use>
                    </mask>
                    <g id="XMLID_23_"></g>
                    <path d="M122.420798,17.5599066 L122.420798,17.5599066 C122.420798,18.8085884 121.407269,19.8230057 120.158863,19.8230057 C118.909792,19.8230057 117.896263,18.8085884 117.896263,17.5599066 C117.896263,16.3105599 118.910129,15.2978098 120.158863,15.2978098 C121.407269,15.2981372 122.420798,16.3108873 122.420798,17.5599066 M123.334153,17.5779987 C123.334153,15.8286435 121.915879,14.4100568 120.167237,14.4100568 C118.418268,14.4100568 117.000004,15.8286435 117.000004,17.5779987 C117.000004,19.3263515 118.418268,20.7449382 120.167237,20.7449382 C121.91588,20.7449382 123.334153,19.3263515 123.334153,17.5779987" id="Shape" fill="#8F9194" mask="url(#mask-136)"></path>
                </g>
                <g id="Clipped">
                    <mask id="mask-138" fill="white">
                        <use xlink:href="#path-137"></use>
                    </mask>
                    <g id="XMLID_23_"></g>
                    <path d="M121.516165,17.5599066 L121.516165,17.5599066 C121.516165,18.3095822 120.908046,18.9178356 120.158863,18.9178356 C119.409353,18.9178356 118.801233,18.3095822 118.801233,17.5599066 C118.801233,16.8115708 119.409026,16.2023151 120.158863,16.2023151 C120.907709,16.2023047 121.516165,16.8115708 121.516165,17.5599066 M122.429173,17.5779987 C122.429173,16.3283145 121.415644,15.3148995 120.167575,15.3148995 C118.918166,15.3148995 117.905312,16.3283145 117.905312,17.5779987 C117.905312,18.826343 118.917839,19.8400954 120.167575,19.8400954 C121.415644,19.8400954 122.429173,18.826343 122.429173,17.5779987" id="Shape" fill="#848688" mask="url(#mask-138)"></path>
                </g>
                <g id="Clipped">
                    <mask id="mask-140" fill="white">
                        <use xlink:href="#path-139"></use>
                    </mask>
                    <g id="XMLID_23_"></g>
                    <path d="M120.610847,17.5599066 L120.610847,17.5599066 C120.610847,17.8105757 120.408475,18.0119905 120.158863,18.0119905 C119.908586,18.0119905 119.705877,17.8102483 119.705877,17.5599066 C119.705877,17.3105773 119.908586,17.1071477 120.158863,17.1071477 C120.408812,17.1071477 120.610847,17.3105672 120.610847,17.5599066 M121.524202,17.5277319 C121.524202,16.7790586 120.91642,16.1708052 120.167575,16.1708052 C119.418064,16.1708052 118.810282,16.7790586 118.810282,17.5277319 C118.810282,18.2774075 119.418064,18.8856608 120.167575,18.8856608 C120.916083,18.8856608 121.524202,18.2774075 121.524202,17.5277319" id="Shape" fill="#797A7D" mask="url(#mask-140)"></path>
                </g>
                <g id="Clipped">
                    <mask id="mask-142" fill="white">
                        <use xlink:href="#path-141"></use>
                    </mask>
                    <g id="XMLID_23_"></g>
                    <path d="M120.619221,17.5277319 C120.619221,17.2784025 120.416859,17.074973 120.167237,17.074973 C119.916961,17.074973 119.714588,17.2784025 119.714588,17.5277319 C119.714588,17.7780736 119.916961,17.9808181 120.167237,17.9808181 C120.416859,17.9808181 120.619221,17.7780739 120.619221,17.5277319" id="Shape" fill="#6D6F71" mask="url(#mask-142)"></path>
                </g>
            </g>
            <g id="Group" transform="translate(8.000000, 101.000000)">
                <g id="Clipped">
                    <mask id="mask-144" fill="white">
                        <use xlink:href="#path-143"></use>
                    </mask>
                    <g id="XMLID_25_"></g>
                    <path d="M6.8782732,1.16824731 L7.64085052,1.40182975 L4.76242268,10.8185197 L3.99951031,10.5852724" id="Shape" fill="#000000" mask="url(#mask-144)"></path>
                </g>
                <g id="Clipped">
                    <mask id="mask-146" fill="white">
                        <use xlink:href="#path-145"></use>
                    </mask>
                    <g id="XMLID_25_"></g>
                    <path d="M6.11569588,0.934664875 L6.8782732,1.16824731 L3.99951031,10.5852724 L3.23693299,10.3530305" id="Shape" fill="#4F5051" mask="url(#mask-146)"></path>
                </g>
                <g id="Clipped">
                    <mask id="mask-148" fill="white">
                        <use xlink:href="#path-147"></use>
                    </mask>
                    <g id="XMLID_25_"></g>
                    <path d="M5.35378866,0.701752688 L6.11569588,0.934664875 L3.23693299,10.3530305 L2.47469072,10.119448" id="Shape" fill="#717375" mask="url(#mask-148)"></path>
                </g>
                <g id="Clipped">
                    <mask id="mask-150" fill="white">
                        <use xlink:href="#path-149"></use>
                    </mask>
                    <g id="XMLID_25_"></g>
                    <path d="M4.59054124,0.468840502 L5.35378866,0.701752688 L2.47469072,10.119448 L1.71177835,9.88620072" id="Shape" fill="#8F9194" mask="url(#mask-150)"></path>
                </g>
                <g id="Clipped">
                    <mask id="mask-152" fill="white">
                        <use xlink:href="#path-151"></use>
                    </mask>
                    <g id="XMLID_25_"></g>
                    <path d="M3.82829897,0.23559319 L4.59054124,0.468840502 L1.71177835,9.88620072 L0.949871134,9.65295341" id="Shape" fill="#AFB1B4" mask="url(#mask-152)"></path>
                </g>
                <g id="Clipped">
                    <mask id="mask-154" fill="white">
                        <use xlink:href="#path-153"></use>
                    </mask>
                    <g id="XMLID_25_"></g>
                    <path d="M3.0660567,0.00234587814 L3.82829897,0.23559319 L0.949871134,9.65295341 L0.187628866,9.42004122" id="Shape" fill="#D1D3D4" mask="url(#mask-154)"></path>
                </g>
            </g>
            <rect id="Rectangle-path" fill="url(#linearGradient-2)" transform="translate(11.670870, 106.282280) rotate(-70.481461) translate(-11.670870, -106.282280) " x="6.84010047" y="104.100021" width="9.66153873" height="4.36451902"></rect>
            <path d="M46.0681364,7 C46.0681364,7 49.4655587,7.21481508 50.1102019,11.7946401 C50.7545023,16.3744635 49.7878803,16.2665534 49.7878803,16.2665534 C49.7878803,16.2665534 45.959583,18.366114 39.8787292,19.2347589 C38.3753529,19.4499101 36.9115143,16.3335785 36.482314,15.0849008 C36.0524412,13.836224 35.4476731,12.0094552 37.0190655,11.0426176 C38.5897832,10.0754462 42.241843,8.07441219 46.0681364,7" id="Shape" fill="url(#linearGradient-2)"></path>
            <g id="Clipped" transform="translate(36.000000, 7.000000)">
                <mask id="mask-156" fill="white">
                    <use xlink:href="#path-155"></use>
                </mask>
                <g id="XMLID_27_"></g>
                <path d="M9.04873845,0.600209677 C9.04873845,0.600209677 12.4277303,0.815360215 13.0723735,5.39518425 C13.7170113,9.97366913 12.7507216,9.86642899 12.7507216,9.86642899" id="Shape" stroke="#000000" stroke-width="1.629" mask="url(#mask-156)"></path>
            </g>
            <path d="M46.0681364,7 C46.0681364,7 49.4655587,7.21481508 50.1102019,11.7946401 C50.7545023,16.3744635 49.7878803,16.2665534 49.7878803,16.2665534 C49.7878803,16.2665534 45.959583,18.366114 39.8787292,19.2347589 C38.3753529,19.4499101 36.9115143,16.3335785 36.482314,15.0849008 C36.0524412,13.836224 35.4476731,12.0094552 37.0190655,11.0426176 C38.5897832,10.0754462 42.241843,8.07441219 46.0681364,7 L46.0681364,7 Z" id="Shape" fill="url(#linearGradient-2)"></path>
            <path d="M105.453918,45.0000007 C105.460953,45.0180978 108.27974,51.8479507 108.169177,59.6724624 C108.059279,67.5324929 104.978151,76.4729727 93.115641,80.4314731 C83.2306182,83.7287741 72.664102,80.3376383 64.6486625,76.2072182 C56.6144601,72.0674095 51.0144072,67.1179428 51,67.1045398 L51.743145,66.2915271 C51.743145,66.2915271 53.1181979,67.5063568 55.4796425,69.2302411 C65.4819353,76.5329598 80.1126285,83.6151645 92.7571435,79.3962686 C107.093327,74.6130248 108.896571,61.7917967 105.777917,49.6776787 C105.106474,47.0700706 104.422291,45.411533 104.422291,45.411533 L105.453918,45" id="Shape" fill="url(#linearGradient-2)"></path>
            <path d="M36.3873631,13 C37.0990129,13 27.5527226,15.9678706 24.3697329,24.4827384 C21.7439346,31.5089795 32.9383428,55.0686319 63.2695518,86.9102439 L65.8591665,82.8347797 C35.5279552,50.9921657 24.7992683,31.1701673 28.1966933,24.4824032 C31.5934435,17.7939695 38.8171566,16.7188871 38.1058418,16.7188871 C38.1058418,16.7188871 38.7769494,15.4970197 38.3876211,14.356253 C37.9982902,13.2148151 36.3873631,13 36.3873631,13" id="Shape" fill="url(#linearGradient-2)"></path>
            <g id="Clipped" transform="translate(23.000000, 13.000000)">
                <mask id="mask-158" fill="white">
                    <use xlink:href="#path-157"></use>
                </mask>
                <g id="XMLID_29_"></g>
                <path d="M7.18048969,30.062429 C7.18048969,30.062429 19.6923203,53.0329322 39.2402336,71.6273681 L40.1857461,70.2905533 C40.1857461,70.2902158 22.5422677,54.547031 7.18048969,30.0624293" id="Shape" fill="#FFFFFF" mask="url(#mask-158)"></path>
            </g>
            <path d="M36.3873631,13 C37.0990129,13 27.5527226,15.9678706 24.3697329,24.4827384 C21.7439346,31.5089795 32.9383428,55.0686319 63.2695518,86.9102439 L65.8591665,82.8347797 C35.5279552,50.9921657 24.7992683,31.1701673 28.1966933,24.4824032 C31.5934435,17.7939695 38.8171566,16.7188871 38.1058418,16.7188871 C38.1058418,16.7188871 38.7769494,15.4970197 38.3876211,14.356253 C37.9982902,13.2148151 36.3873631,13 36.3873631,13 L36.3873631,13 Z" id="Shape" fill="url(#linearGradient-2)"></path>
            <path d="M13.9430412,111.758487 C13.8284539,112.10568 8.63615946,128.018442 8.63615946,133.521196 C8.63615946,141.606098 12.2865461,153.155193 20.6233,158.13281 C35.0395629,166.741519 43.1638934,137.022259 75.4521445,164.213668 C80.1472168,168.166804 86.3905633,174.218494 91.947738,176.726576 C101.614642,181.087911 113.779361,176.893464 117.395572,170.380976 C124.782452,157.079846 121.523409,145.760986 119.650135,140.982769 C118.009724,136.796381 106.543585,115.38924 102.698539,108.244026 C95.3397975,110.255116 85.9918614,107.860648 75.7580449,100.411143 C70.3663971,96.4848125 65.0973772,91.7521675 60.734667,86.6780361 C60.734667,86.6780361 61.6547192,83.8867729 63.0599254,82.8482195 C64.2037917,82.0023672 66.519669,81.6910354 66.519669,81.6910354 C67.7955449,83.1719517 89.8074284,107.542275 102.696187,100.044845 C116.024874,92.2917249 109.94,63.4390937 109.623046,62.078153 C109.623046,62.078153 111.72583,60.3934747 113.342785,60.0784561 C114.770773,59.8006388 117.062197,60.349912 117.062197,60.349912 C117.062197,60.349912 119.06312,68.9408512 118.912015,78.7814742 C118.723712,91.0276307 115.229464,99.8722612 109.463895,104.70007 C111.012506,107.578132 113.750546,112.680419 116.599487,118.069569 C126.531759,136.850002 136.335033,152.004375 124.071807,174.08914 C118.204049,184.655655 101.455163,189.395663 88.8072941,183.688467 C74.9696693,177.443422 62.0316522,155.690755 45.7387686,160.916699 C36.0886106,164.01259 27.3310333,171.033799 16.7099003,164.690879 C5.07255188,157.743398 1,142.894993 1,133.521533 C1,127.514413 4.68456186,115.449897 6.69085085,109.365685 C6.69085085,109.365685 9.34713918,109.039948 10.8850261,109.604971 C12.2540464,110.107322 13.9430412,111.758486 13.9430412,111.758486 L13.9430412,111.758487 Z" id="Shape" fill="url(#linearGradient-2)"></path>
            <path d="M13.9430412,111.758487 C13.8284539,112.10568 8.63615946,128.018442 8.63615946,133.521196 C8.63615946,141.606098 12.2865461,153.155193 20.6233,158.13281 C35.0395629,166.741519 43.1638934,137.022259 75.4521445,164.213668 C80.1472168,168.166804 86.3905633,174.218494 91.947738,176.726576 C101.614642,181.087911 113.779361,176.893464 117.395572,170.380976 C124.782452,157.079846 121.523409,145.760986 119.650135,140.982769 C118.009724,136.796381 106.543585,115.38924 102.698539,108.244026 C95.3397975,110.255116 85.9918614,107.860648 75.7580449,100.411143 C70.3663971,96.4848125 65.0973772,91.7521675 60.734667,86.6780361 C60.734667,86.6780361 61.6547192,83.8867729 63.0599254,82.8482195 C64.2037917,82.0023672 66.519669,81.6910354 66.519669,81.6910354 C67.7955449,83.1719517 89.8074284,107.542275 102.696187,100.044845 C116.024874,92.2917249 109.94,63.4390937 109.623046,62.078153 C109.623046,62.078153 111.72583,60.3934747 113.342785,60.0784561 C114.770773,59.8006388 117.062197,60.349912 117.062197,60.349912 C117.062197,60.349912 119.06312,68.9408512 118.912015,78.7814742 C118.723712,91.0276307 115.229464,99.8722612 109.463895,104.70007 C111.012506,107.578132 113.750546,112.680419 116.599487,118.069569 C126.531759,136.850002 136.335033,152.004375 124.071807,174.08914 C118.204049,184.655655 101.455163,189.395663 88.8072941,183.688467 C74.9696693,177.443422 62.0316522,155.690755 45.7387686,160.916699 C36.0886106,164.01259 27.3310333,171.033799 16.7099003,164.690879 C5.07255188,157.743398 1,142.894993 1,133.521533 C1,127.514413 4.68456186,115.449897 6.69085085,109.365685 C6.69085085,109.365685 9.34713918,109.039948 10.8850261,109.604971 C12.2540464,110.107322 13.9430412,111.758486 13.9430412,111.758486 L13.9430412,111.758487 Z" id="Shape" fill="url(#linearGradient-2)"></path>
            <path d="M47,66.3514753 L53.4048444,74.2617777 C53.4048444,74.2617777 54.0491498,70.9138728 57.4596398,73.1880324 L51.0266512,65.8695639 C51.0266512,65.8695639 48.5419089,63.623217 47,66.3514756 L47,66.3514753 Z" id="Shape" fill="url(#linearGradient-2)"></path>
            <path d="M47,66.3514753 L53.4048444,74.2617777 C53.4048444,74.2617777 54.0491498,70.9138728 57.4596398,73.1880324 L51.0266512,65.8695639 C51.0266512,65.8695639 48.5419089,63.623217 47,66.3514756 L47,66.3514753 Z" id="Shape" fill="url(#linearGradient-2)"></path>
            <path d="M115.766055,62.0533287 L111.38793,63.7869289 C97.2229636,15.6686141 82.0672393,5.01933273 79.825411,4.05886319 C77.5815738,3.09705316 64.0836836,6.15205708 64.0836836,6.15205708 L62,2.15032377 C62,2.15032377 72.96121,-0.291400248 76.0433509,0.0289796799 C79.1254917,0.349359608 81.688634,0.0289796799 84.4508,3.1121338 C87.2129609,6.19495246 99.1820147,15.74938 110.31208,45.7977347 C113.120826,53.379273 114.970644,58.9594472 115.766054,62.0533287 L115.766055,62.0533287 Z" id="Shape" fill="url(#linearGradient-2)"></path>
            <path d="M115.766055,62.0533287 L111.38793,63.7869289 C97.2229636,15.6686141 82.0672393,5.01933273 79.825411,4.05886319 C77.5815738,3.09705316 64.0836836,6.15205708 64.0836836,6.15205708 L62,2.15032377 C62,2.15032377 72.96121,-0.291400248 76.0433509,0.0289796799 C79.1254917,0.349359608 81.688634,0.0289796799 84.4508,3.1121338 C87.2129609,6.19495246 99.1820147,15.74938 110.31208,45.7977347 C113.120826,53.379273 114.970644,58.9594472 115.766054,62.0533287 L115.766055,62.0533287 Z" id="Shape" fill="url(#linearGradient-2)"></path>
            <path d="M108.269566,57.0604917 C109.115906,50.8713942 112.25634,50.5322493 112.25634,50.5322493 L109.021755,41.6152284 C109.021755,41.6152284 104.28178,38.6617691 104,45.6970563 L108.269566,57.0604917 L108.269566,57.0604917 Z" id="Shape" fill="url(#linearGradient-2)"></path>
            <path d="M108.269566,57.0604917 C109.115906,50.8713942 112.25634,50.5322493 112.25634,50.5322493 L109.021755,41.6152284 C109.021755,41.6152284 104.28178,38.6617691 104,45.6970563 L108.269566,57.0604917 L108.269566,57.0604917 Z" id="Shape" fill="url(#linearGradient-2)"></path>
            <path d="M82,5 C82,5 87.8245317,8.44777061 91.8515206,15.0594599 C95.8778344,21.6721559 100.353791,31.0754402 100.353791,31.0754402 C100.353791,31.0754402 91.6149762,15.7886935 88.7231423,11.9310642 C87.0378334,9.68371326 82,5 82,5" id="Shape" fill="url(#linearGradient-2)"></path>
            <path d="M65.8720749,8.15827923 C64.9051155,9.44784229 58.9713556,13.1680699 56.7147831,13.7046051 C54.4595502,14.2421463 53.4255818,12.8450086 52.7802742,11.6636911 C52.1359687,10.4813685 51.0993159,6.04363766 53.533133,4.54596237 C57.8965076,1.85959677 62.7973062,1 62.7973062,1 C62.7973062,1 67.0527922,2.11496237 65.8720749,8.15827923" id="Shape" fill="url(#linearGradient-2)"></path>
            <g id="Clipped" transform="translate(52.000000, 1.000000)">
                <mask id="mask-160" fill="white">
                    <use xlink:href="#path-159"></use>
                </mask>
                <g id="XMLID_31_"></g>
                <ellipse id="Oval" stroke="#000000" stroke-width="1.629" mask="url(#mask-160)" cx="3.02853093" cy="8.10869534" rx="3.36358247" ry="4.88210753"></ellipse>
            </g>
            <path d="M65.8720749,8.15827923 C64.9051155,9.44784229 58.9713556,13.1680699 56.7147831,13.7046051 C54.4595502,14.2421463 53.4255818,12.8450086 52.7802742,11.6636911 C52.1359687,10.4813685 51.0993159,6.04363766 53.533133,4.54596237 C57.8965076,1.85959677 62.7973062,1 62.7973062,1 C62.7973062,1 67.0527922,2.11496237 65.8720749,8.15827923 L65.8720749,8.15827923 Z" id="Shape" fill="url(#linearGradient-2)"></path>
            <path d="M54,8.80733154 C54,7.80899283 54.4245096,7 54.9475268,7 C55.4698688,7 55.8940464,7.80899283 55.8940464,8.80733154 C55.8940464,9.80432975 55.4698691,10.6133226 54.9475268,10.6133226 C54.4241776,10.6129878 54,9.80399496 54,8.80733154 L54,8.80733154 Z" id="Shape" fill="url(#linearGradient-2)"></path>
            <path d="M54,8.80733154 C54,7.80899283 54.4245096,7 54.9475268,7 C55.4698688,7 55.8940464,7.80899283 55.8940464,8.80733154 C55.8940464,9.80432975 55.4698691,10.6133226 54.9475268,10.6133226 C54.4241776,10.6129878 54,9.80399496 54,8.80733154 L54,8.80733154 Z" id="Shape"></path>
        </g>
    </g>
</svg>